<?xml version="1.0" encoding="utf-8"?>
<!-- Generator: Adobe Illustrator 27.1.1, SVG Export Plug-In . SVG Version: 6.00 Build 0)  -->
<svg version="1.1" id="Layer_1" xmlns="http://www.w3.org/2000/svg" xmlns:xlink="http://www.w3.org/1999/xlink" x="0px" y="0px"
	 viewBox="0 0 522 264" style="enable-background:new 0 0 522 264;" xml:space="preserve">
<style type="text/css">
	.st0{clip-path:url(#SVGID_00000030454515433148112040000017353657360801421742_);}
	.st1{fill:#FFFFFF;}
	.st2{fill:#ABE1FA;}
	.st3{fill:#0033A1;}
	.st4{opacity:0.5;}
	.st5{fill:#F7941D;}
	.st6{fill:#DE7726;}
</style>
<g>
	<defs>
		<rect id="SVGID_1_" width="521.09" height="263.35"/>
	</defs>
	<clipPath id="SVGID_00000096776899746354336320000009239197564174419384_">
		<use xlink:href="#SVGID_1_"  style="overflow:visible;"/>
	</clipPath>
	<g style="clip-path:url(#SVGID_00000096776899746354336320000009239197564174419384_);">
		<circle class="st1" cx="259" cy="132" r="131"/>
		<path class="st2" d="M137.04,110.58c7.72,0,7.73-12,0-12C129.31,98.58,129.31,110.58,137.04,110.58z"/>
		<path class="st2" d="M140.14,113.57c7.72,0,7.73-12,0-12S132.41,113.57,140.14,113.57z"/>
		<path class="st2" d="M136.26,110.25c7.72,0,7.73-12,0-12C128.53,98.25,128.53,110.25,136.26,110.25z"/>
		<path class="st2" d="M132.24,112.04l0.11,0.11c0.54,0.59,1.19,1,1.93,1.24c0.72,0.38,1.49,0.55,2.31,0.52
			c0.83,0.03,1.6-0.14,2.31-0.52c0.74-0.24,1.39-0.66,1.93-1.24l0.94-1.21c0.54-0.94,0.82-1.95,0.82-3.03l-0.21-1.6
			c-0.29-1.02-0.8-1.9-1.54-2.65l-0.11-0.11c-0.54-0.59-1.19-1-1.93-1.24c-0.72-0.38-1.49-0.55-2.31-0.52
			c-0.83-0.03-1.6,0.14-2.31,0.52c-0.74,0.24-1.39,0.66-1.93,1.24l-0.94,1.21c-0.54,0.94-0.82,1.95-0.82,3.03l0.21,1.6
			C130.99,110.41,131.5,111.29,132.24,112.04z"/>
		<path class="st2" d="M135.71,117.67c7.72,0,7.73-12,0-12S127.98,117.67,135.71,117.67z"/>
		<path class="st2" d="M138.48,121.89c7.72,0,7.73-12,0-12C130.75,109.89,130.75,121.89,138.48,121.89z"/>
		<path class="st2" d="M136.26,121.11c7.72,0,7.73-12,0-12C128.53,109.11,128.53,121.11,136.26,121.11z"/>
		<path class="st2" d="M143.91,125.65c7.72,0,7.73-12,0-12C136.18,113.65,136.18,125.65,143.91,125.65z"/>
		<path class="st2" d="M140.36,125.1c7.72,0,7.73-12,0-12S132.63,125.1,140.36,125.1z"/>
		<path class="st2" d="M141.55,126.5c3.09,1.49,6.15,3.16,9.68,3.04l-4.24-1.76l0.12,0.16l-1.54-2.65c0.34,0.83,0.59,1.71,1.03,2.49
			c1.56,2.73,5.51,3.9,8.21,2.15s3.82-5.29,2.15-8.21c0.85,1.49,0.38,0.91,0.18,0.38c-0.4-1.04-0.78-1.89-1.6-2.73
			c-0.77-0.78-1.68-1.29-2.71-1.62c0.94,0.31-2.47-0.43-2.5-0.22c0.02-0.12,1.33,0.29,0-0.13c-0.23-0.07-0.45-0.15-0.68-0.24
			l0.54,0.23c-0.82-0.12-1.85-0.9-2.59-1.26c-2.82-1.36-6.61-0.87-8.21,2.15c-1.42,2.68-0.87,6.76,2.15,8.21L141.55,126.5z"/>
		<path class="st2" d="M146.13,118.01c7.72,0,7.73-12,0-12C138.4,106.01,138.4,118.01,146.13,118.01z"/>
		<path class="st2" d="M143.36,115.57c7.72,0,7.73-12,0-12S135.63,115.57,143.36,115.57z"/>
		<path class="st2" d="M147.68,122.33c7.72,0,7.73-12,0-12C139.95,110.33,139.95,122.33,147.68,122.33z"/>
		<path class="st2" d="M148.46,123.88c7.72,0,7.73-12,0-12C140.73,111.88,140.73,123.88,148.46,123.88z"/>
		<path class="st2" d="M155.11,130.8c4.5,0,4.51-7,0-7S150.6,130.8,155.11,130.8z"/>
		<path class="st2" d="M155.33,131.25c4.5,0,4.51-7,0-7S150.82,131.25,155.33,131.25z"/>
		<path class="st2" d="M150.62,157.96c4.5,0,4.51-7,0-7C146.11,150.96,146.11,157.96,150.62,157.96z"/>
		<path class="st2" d="M147.7,153.54c-3.69,2.89-4.71,7.01-6.54,11.11l6.52,1.77c0.18-0.86,0.41-1.7,0.7-2.52
			c1.05-3.33-3.47-5.91-5.85-3.41s-2.68,5.37-3.5,8.64h6.75l-0.13-0.86l-6.4,2.7c0-0.5-0.08-0.33-0.23,0.53h6.75
			c-0.24-0.76-0.47-1.52-0.69-2.28c-0.77-2.6-5.14-3.76-6.4-0.84c-2.87,6.67-1.72,16.49,3.4,21.68c1.29,1.31-0.76-0.78,0.46,0.46
			c0.46,0.47,0.74,0.99,1.27,1.39c1.12,0.86,2.37,1.24,3.79,0.94c2.26-0.48,3.47-2.46,4.34-4.41c2.69-6.02,3.29-13.41,3.57-19.92
			c0.2-4.66,0.85-12.43-4.44-14.56c-1.35-0.55-3.31,0.35-3.95,1.61c-2.26,4.42-2.54,9.14-3.52,13.93
			c-0.98,4.79-2.88,9.67-2.85,14.84c0.03,4.5,7.03,4.51,7,0c-0.03-4.51,1.71-8.63,2.6-12.98c0.84-4.08,0.89-8.49,2.82-12.26
			l-3.95,1.61c-2.51-1.01-0.84-1.39-1.03-0.11c-0.08,0.51,0.24,1.51,0.29,2.05c0.2,2.08,0.12,4.22,0.01,6.3
			c-0.22,4.41-0.75,8.86-1.83,13.16c-0.18,0.73-1.57,3.53-1.38,4.12c0.09,0.28,0.74,0.1,2.07-0.16c0.92-0.18,1.54,1.23,0.06-0.83
			c-0.63-0.88-1.27-0.89-1.87-1.89c-0.63-1.07-0.83-2.77-1.01-3.98c-0.31-2.15-0.71-5.37,0.18-7.45l-6.4-0.84
			c0.22,0.76,0.45,1.52,0.69,2.28c1.03,3.31,5.73,3.34,6.75,0c0.62-2.05,0.65-4.06-0.47-5.93c-2.17-3.6-6.98-1.06-6.4,2.7l0.13,0.86
			c0.55,3.51,5.96,3.16,6.75,0c0.43-1.7,0.42-4.21,1.7-5.55l-5.85-3.41c-0.49,1.54-0.93,2.75-0.95,4.38
			c-0.04,3.27,5.06,5.04,6.52,1.77c1.54-3.46,2.34-7.26,5.44-9.7c3.54-2.77-1.44-7.7-4.95-4.95L147.7,153.54z"/>
		<path class="st2" d="M210.24,83.34c-3.44,5.32-9.76,7.33-15.52,9.14c-5.76,1.81-15.53,3.53-13.28,11.85
			c1.68,6.21,9.13,8.53,14.74,7.19c7.17-1.71,13.07-6.85,19.99-9.19c4.64-1.57,8,2.14,13,1.04c2.21-0.48,4.26-1.52,6.3-2.46
			c0.34-0.15,2.45-0.81,2.69-1.15c1.42-0.19,1.05-0.52-1.11-1c-1.44-0.01-2.15-0.63-2.11-1.86c2.13-2.94,2.4-3.83,0.79-2.66
			c-0.61,0.35-1.24,0.68-1.86,1c-1.25,0.66-2.5,1.3-3.73,1.99c-3.51,1.99-6.89,4.28-9.9,6.98c-5.53,4.96-12.18,7.7-18.31,11.81
			c-6.92,4.63-0.41,15.9,6.56,11.23c5.18-3.47,11-5.88,16.03-9.59c5.03-3.71,9.2-7.64,14.8-10.61c4.04-2.14,8.22-4.46,8.57-9.56
			c0.28-4.18-2.18-8.54-6.12-10.08c-4.18-1.64-8.15,0.1-11.96,1.86c-1.13,0.52-2.72,1.25-3.54,1.47c1.21-0.33,1.48,0.42-0.3-0.49
			c-1.16-0.59-2.35-0.97-3.61-1.24c-5.21-1.11-10.27,0.82-14.93,2.98c-2.88,1.34-5.66,2.89-8.49,4.32
			c-1.31,0.66-2.61,1.37-3.97,1.92c-4.33,1.73-0.41-0.81-0.69,3.57l-3.22,5.61c4.9-2.83,11.37-3.54,16.59-5.9
			c5.72-2.58,10.4-6.32,13.83-11.61C226.04,82.86,214.79,76.33,210.24,83.34L210.24,83.34z"/>
		<path class="st2" d="M175.04,124.93c11.97,3.3,23.79,7.18,36.12,8.96v-15.43l-0.53,0.11c-4.99,1.03-7.41,7.58-4.78,11.75
			c3.07,4.88,8.95,5.21,14.17,5.9c6.39,0.85,12.8,1.08,19.25,1.07c4.48,0,7.79-3.67,8-8l0.02-0.38c0.45-9.29-13.06-10.47-15.71-2.13
			c-0.95,2.98-5.03,5.02-7.09,7.48c-2.86,3.41-3.79,7.87-0.93,11.62c2.03,2.66,5.07,3.44,8.26,3.27c0.09,0,1.12,0.04,1.16,0
			c-1.4,1.61-4.45-3.66-4.31-3.44c0.65,1.08-2.92-3.68-1.31-4.12c-0.39,0.11-1.26,1.49-1.48,1.75c-2.66,3.27-3.88,7.14-2.59,11.27
			c0.28,0.9,0.79,1.73,1.12,2.61c0.29,0.63,0.31,0.65,0.05,0.08c-0.25-0.62-0.26-0.55-0.02,0.21c-0.32,0.28,0.46-2.04-0.31-0.43
			c-0.34,0.72-0.69,1.48-1.01,2.21c-3.84,8.62-6.84,21.22,0.97,28.64c3.49,3.32,10.23,3.16,12.56-1.62
			c2.79-5.69,7.72-23.13-0.5-26.8c-4.19-1.87-8.26-1.01-10.95,2.87c-0.46,0.67-0.76,1.63-1.03,2.4
			c-3.37,9.75,12.08,13.94,15.43,4.25l-0.59,1.42l-10.95,2.87l0.08,0.04l-3.68-4.78c-0.83-2.67-0.05-1.01-0.16,0.29
			c-0.11,1.3-0.12,2.48-0.27,3.72c-0.13,1.05-0.32,2.15-0.56,3.2c-0.1,0.43-1.11,3.36-0.65,2.44l12.56-1.62
			c0.4,0.38-0.22-0.28-0.16-0.9c0.14-1.46,0.13-2.79,0.44-4.23c0.75-3.45,2.62-6.29,3.71-9.61c0.97-2.96,1.16-6.22,0.31-9.24
			c-0.08-0.28-1.2-3.52-1.47-3.49c0.34-0.04,0.49,1.97,0.49,2.16c-0.02,1.44-1.42,2.39-0.56,2.2c2.61-0.57,4.37-6.68,4.7-8.9
			c0.45-3.06-0.26-6.2-2.5-8.47c-1.92-1.95-4.49-2.83-7.18-2.98c-0.51-0.03-1.02-0.04-1.53,0c-2.17,0.17-1.22-0.91,2.24,0.96
			l2.87,2.87l0.69,1.62v4.25c-0.36,1.45-2.25,3.02-0.33,1.25c1.15-1.07,2.31-2.14,3.47-3.2c3.17-2.87,5.12-5.8,6.42-9.89
			l-15.71-2.13l-0.02,0.38l8-8c-4.25,0-8.51-0.05-12.76-0.37c-2.63-0.2-7.52-0.01-9.53-1.25l2.87,2.87l-0.18-0.29l-4.78,11.75
			l0.53-0.11c7.4-1.53,7.87-14.29,0-15.43c-12.33-1.78-24.15-5.65-36.12-8.96c-9.94-2.74-14.18,12.69-4.25,15.43V124.93z"/>
		<path class="st2" d="M157.52,143.36c-0.9-0.22-4.13-4.73-1.74-0.64c0.61,1.04,1.42,1.92,2.44,2.56c1.96,1.23,4.46,1.29,6.67,0.86
			c4.98-0.99,7.6-5.29,4.95-9.93c-0.31-0.55-0.94-1.62-1.44-1.98l-0.32-0.52c-3.2,4.16-3.26,5.95-0.18,5.36
			c2.68,0.38,5.35,0.45,8.03,1c6.33,1.31,12.46,3.5,18.45,5.89c23.38,9.31,47.35,22.29,72.45,10.86l-7.53-7.53
			c-1.51,2.55-3.44,4.86-4.88,7.45c-0.6,1.09-0.97,3.08-1.8,3.99c0.77-0.83-2.39,0.32-0.8,0.64c1.59,0.32-0.78-1.52-1.33-2.02
			c-0.99-0.91-2.05-1.65-3.24-2.27c-2.65-1.38-5.5-1.9-7.91-3.73c-5.65-4.27-11.13,5.28-5.55,9.5c2.99,2.26,6.99,2.63,9.73,5.11
			c3.11,2.81,5.43,5.2,10,4.01c3.28-0.86,7.01-2.44,8.73-5.55c0.97-1.75,1.35-3.65,2.44-5.39c1.32-2.1,2.84-4.05,4.11-6.19
			c3.01-5.1-2.79-9.68-7.53-7.53c-22.62,10.3-47.26-5.82-68.08-13.56c-5.54-2.06-11.21-3.85-17.06-4.81
			c-4.62-0.76-11.06-2.07-15.32,0.57c-3.73,2.31-4.02,6.71-1.92,10.25c0.27,0.45,0.69,1.18,1.11,1.52c2,1.61,5.74-1.41,5.37-3.92
			c-0.33-2.3-2.91-4.13-4.95-4.62c-6.87-1.68-9.81,8.92-2.92,10.61L157.52,143.36z"/>
		<path class="st2" d="M175.39,141.36c2.13,1.28,4.59,2.03,7,2.59c2.69,0.63,5.4-0.62,6.49-3.18c0.98-2.32,0.24-5.72-2.25-6.87
			c-2.69-1.25-5.33-2.41-8.35-2.45c-3.02-0.04-5.63,2.56-5.5,5.5s2.42,5.45,5.5,5.5c1.17,0.02-1.03-0.34,0.04-0.03
			c0.45,0.13,0.9,0.23,1.34,0.39c0.17,0.06,1.41,0.6,0.65,0.24c-0.76-0.36,0.63,0.3,0.76,0.36l4.24-10.05
			c-0.93-0.22-1.85-0.46-2.76-0.75c-0.24-0.08-0.47-0.16-0.71-0.24c-0.56-0.22-0.46-0.17,0.3,0.15c0,0.03-1.11-0.57-1.2-0.63
			c-2.47-1.48-6.15-0.63-7.53,1.97c-1.38,2.6-0.66,5.95,1.97,7.53L175.39,141.36z"/>
		<path class="st2" d="M171.62,141.56c1.47,0.1,2.95,0.12,4.42,0.1c1.75-0.02,3.26-0.8,4.32-2.17c1.16-1.5,1.25-2.98,0.98-4.79
			c-0.15-1.03-0.7-1.93-1.32-2.73c-0.7-0.91-1.71-1.71-2.86-1.97c-0.67-0.15-1.37-0.15-2.05-0.24l1.46,0.2
			c-0.77-0.17-1.49-0.5-2.28-0.63c-1.49-0.26-2.88-0.24-4.24,0.55c-1.14,0.67-2.23,1.98-2.53,3.29c-0.61,2.67,0.81,6.25,3.84,6.77
			c0.54,0.09,1.04,0.28,1.56,0.44c0.88,0.28,1.84,0.41,2.76,0.43l-4.75-2.72c0.1,0.13,0.18,0.26,0.23,0.41l-0.55-1.31
			c0.06,0.14,0.09,0.29,0.11,0.45l5.3-6.96c-1.48,0.02-2.95,0-4.42-0.1c-2.88-0.2-5.63,2.67-5.5,5.5c0.14,3.15,2.42,5.28,5.5,5.5
			L171.62,141.56z"/>
		<path class="st2" d="M170.29,144.66c4.75-0.4,8.84,1.61,13.21,3.2s9.26,2.94,13.91,4.18c9.94,2.64,20.07,4.44,29.65,8.31l1.2-8.84
			c-4.99,0.14-10.26-0.57-14.21-3.89c-4.4-3.71-10.8,2.63-6.36,6.36c5.84,4.92,13.02,6.75,20.57,6.53c5.36-0.15,5.74-7,1.2-8.84
			c-10.14-4.09-20.9-5.86-31.4-8.78c-4.58-1.28-9.21-2.58-13.66-4.27c-4.45-1.69-9.09-3.38-14.1-2.96c-5.73,0.48-5.78,9.49,0,9
			H170.29z"/>
		<path class="st2" d="M239.13,156.41c9.67,0.08,20.5,3.73,29.54-1.17c5.09-2.76,0.56-10.53-4.54-7.77c-6.9,3.74-17.52,0-25-0.06
			C233.34,147.36,233.33,156.36,239.13,156.41z"/>
		<path class="st2" d="M203.6,147.48c2.4,1.6,5.2,2.03,8.01,2.28c2.35,0.21,5.12-0.06,7.28,1.04c5.15,2.62,9.71-5.14,4.54-7.77
			c-2.69-1.37-5.47-1.82-8.46-2.05c-2.29-0.17-4.86,0.04-6.84-1.28c-4.84-3.21-9.35,4.58-4.54,7.77L203.6,147.48z"/>
		<path class="st2" d="M207.76,147.43c5.79,0,5.8-9,0-9C201.96,138.43,201.96,147.43,207.76,147.43z"/>
		<path class="st2" d="M191.95,128.63c-0.14,4.69-0.2,9.38-0.11,14.08c0.11,5.78,9.11,5.8,9,0c-0.09-4.69-0.03-9.39,0.11-14.08
			C201.12,122.84,192.12,122.84,191.95,128.63z"/>
		<path class="st2" d="M199.54,128.77c-0.3,1.7-1.03,3.02-1.74,4.58c-0.97,2.12-1.61,4.08-1.75,6.42c-0.25,4.35,6.46,6.28,8.39,2.27
			c1.27-2.64,1.97-5.15,2.17-8.08c0.16-2.43-2.18-4.5-4.5-4.5c-2.57,0-4.34,2.07-4.5,4.5c-0.08,1.24-0.4,2.42-0.94,3.54l8.39,2.27
			c0.16-2.77,2.64-5.63,3.16-8.61c0.42-2.39-0.64-4.85-3.14-5.54c-2.17-0.6-5.11,0.74-5.54,3.14V128.77z"/>
		<path class="st2" d="M169.96,167.56c8.91,0.98,17.73,3.36,26.04,6.69c3.72,1.49,7.4,3.99,11.57,3.82c0.63-0.02,4.87-0.1,1.52-0.25
			c0.64,0.03,1.82,0.26-0.42-0.14c0.47,0.08,1.05,0.21,1.47,0.43c0.43,0.16,0.33,0.11-0.32-0.16c0.44,0.2,0.88,0.4,1.32,0.62
			c1.13,0.59,2.25,1.18,3.35,1.81c3.52,2.02,6.91,4.26,10.29,6.51l-1.42-10.99l1.37-0.82c-8.64,2.5-4.96,16.01,3.72,13.5
			c1.95-0.56,3.35-1.37,4.81-2.78c3.41-3.28,2.24-8.56-1.42-10.99c-7.45-4.96-16.07-12.04-25.56-10.6c0.29-0.04,1.58-0.22,1.35-0.09
			c-0.16,0.09-1.11-0.57-0.11,0c1.05,0.59-1.71-0.8-2.01-0.93c-2.19-0.97-4.4-1.9-6.64-2.76c-9.33-3.61-18.99-5.77-28.92-6.87
			c-3.79-0.42-6.96,3.52-7,7c-0.04,4.13,3.26,6.59,7,7H169.96z"/>
		<path class="st2" d="M232.37,182.63c9.01,0,9.02-14,0-14C223.35,168.63,223.35,182.63,232.37,182.63z"/>
		<path class="st2" d="M170.31,169.26c11.55,4.98,23.99,7.16,35.59,12.01c3.52,1.47,7.66-1.59,8.61-4.89
			c1.15-4.02-1.42-7.16-4.89-8.61c-10.48-4.38-21.86-6.12-32.25-10.6c-3.5-1.51-7.47-1.01-9.58,2.51
			C166.03,162.62,166.84,167.76,170.31,169.26L170.31,169.26z"/>
		<path class="st2" d="M190.45,152.46c-0.14,1.87,0.17,3.75,0.49,5.59c0.12,0.68,0.26,1.36,0.39,2.04c0.07,0.39,0.14,0.77,0.2,1.16
			c-0.12-0.9-0.14-0.95-0.08-0.14c0.22,3.65,3.06,7.18,7,7c3.6-0.16,7.24-3.09,7-7c-0.11-1.89-0.44-3.76-0.79-5.61
			c-0.07-0.38-0.65-2.41-0.18-0.75c-0.2-0.69-0.08-1.58-0.02-2.28c0.28-3.66-3.42-7.16-7-7c-4.03,0.18-6.7,3.08-7,7L190.45,152.46z"
			/>
		<path class="st2" d="M193.11,152.13c-0.38,2.82-1.15,7.49-0.67,11.1c0.65,4.94,3.07,8.42,7.02,11.35c3.04,2.25,7.82,0.5,9.58-2.51
			c2.08-3.56,0.54-7.32-2.51-9.58c0.29,0.21-0.35-1.03-0.15-0.46c-0.29-0.82-0.21-1.33-0.15-2.68c0.1-2.42,0.53-4.55,0.89-7.23
			c0.5-3.75-3.58-7-7-7c-4.2,0-6.5,3.23-7,7L193.11,152.13z"/>
		<path class="st2" d="M197.46,176.21c-1.18,7.23-1.98,15.73-6.62,21.72c-1.22,1.57-2.15,2.99-3.2,4.65
			c1.82-2.61,2.12-3.29,0.91-2.04c-0.19,0.09-0.35,0.21-0.5,0.36c-3.36-0.64-6.26,1.32-8.24,4.02l10.99-1.42
			c-4.2-4.59-7.87-9.26-14.74-8.25l5.39,12.79c0.71-0.43,3.47-0.33,4.2-0.47c1.87-0.37,3.54-0.97,5.07-2.15
			c0.95-0.73,1.76-1.59,2.4-2.63c0.28-0.45,1.36-2.34,0.36-1.02c0.61-0.81,1.5-1.56,2.19-2.3c1.99-2.13,4.2-4.06,5.29-6.81
			c1.99-5,3.06-10.43,1.66-15.69c-2.31-8.7-15.82-5.01-13.5,3.72c0.55,2.09-0.56,3.33-0.77,5.33c-0.85,1.99-0.59,1.98,0.79-0.04
			l-0.79,0.85c-1.37,1.35-2.61,2.85-3.96,4.23c-0.92,0.94-1.89,1.74-2.61,2.88l-0.37,0.87c-1.31,2.62-0.8,2.32,1.53-0.9
			c-1.34-1.23-7.29,1.29-8.55,2.04c-7.25,4.36-2.09,13.9,5.39,12.79l1-0.15l-5.39-0.71c0.35,0.21,0.82,0.59,1.08,0.89l1.42,1.09
			c-0.72-0.78-0.71-0.72,0.02,0.17c0.97,1.18,1.97,2.23,3,3.35c3.31,3.62,8.48,2.02,10.99-1.42l0.31-0.42l-4.18,3.22
			c1.14-0.4,2.91-0.15,4.24-0.58c1.76-0.57,3.26-1.51,4.72-2.61c1.36-1.03,2.45-2.05,3.41-3.46l0.71-1.67l-0.75,1.84
			c0.97-0.86,1.74-2.13,2.48-3.17c5.19-7.36,6.69-16.51,8.1-25.19c0.61-3.76-0.98-7.49-4.89-8.61c-3.33-0.96-8,1.17-8.61,4.89
			L197.46,176.21z"/>
		<path class="st2" d="M162.3,189.47c-0.99,2.61-0.13,5.85,0.84,8.34c1.07,2.74,2.59,5.85,5.14,7.51c3.01,1.97,6.15,0.14,7.11-3.05
			c0.51-1.7,0.94-4.3,0.46-6.05c-0.37-1.35-1.5-1.83-2.53-2.57c-1.03-0.74-1.8-1.96-2.57-2.95c-1-1.28-3.19-1.05-4.24,0
			c-1.26,1.26-1,2.96,0,4.24c1.47,1.88,2.9,3.22,4.87,4.57l-1.08-1.08l0.07,0.1l-0.41-1.51c0.05,1.11-0.02,2.24-0.19,3.02
			c-0.06,0.26-0.14,0.5-0.2,0.76c-0.12,0.51,0.19-0.2,0.02-0.03s-0.44,0.38,0.14-0.12c-0.36,0.31,0.41-0.25,0.53-0.3
			c0.24-0.11,0.21-0.15,0.68-0.15c0.11,0,0.85,0.14,0.34,0.02c-0.34-0.08,0.7,0.3,0.24,0.08c-0.49-0.24,0.36,0.34,0.12,0.11
			c-0.27-0.26-0.53-0.51-0.78-0.79c-0.23-0.25-0.09-0.1,0.04,0.08c-0.15-0.19-0.28-0.39-0.42-0.59c-0.49-0.74-0.91-1.51-1.3-2.31
			c-0.22-0.46-0.51-1.15-0.8-2.13c-0.13-0.43-0.24-0.86-0.33-1.29c-0.05-0.25-0.1-0.5-0.14-0.75c0.06,0.4,0.02,0.3,0.01-0.04
			c0-0.37,0-0.73,0-1.1c0-0.37-0.16,0.63,0,0.11c0.05-0.17,0.1-0.35,0.16-0.52c0.58-1.51-0.64-3.29-2.1-3.69
			c-1.69-0.46-3.11,0.58-3.69,2.1L162.3,189.47z"/>
		<path class="st2" d="M275.68,111.63c3.75,1.27,7.68-0.38,11.23-1.5l-5.54-5.54c-0.89,3.01,0.25,7.26,0.53,10.27
			c0.6,6.59,1.28,13.18,2.11,19.75c2.11,16.68,7.62,33.17,7.98,49.99c0.13,5.78,9.13,5.8,9,0c-0.36-16.56-5.71-32.62-7.85-48.98
			c-0.82-6.28-1.47-12.58-2.06-18.88c-0.23-2.45-0.46-4.91-0.65-7.37c-0.06-0.78-0.05-1.59-0.17-2.36c-0.13-0.83,0.32-1.8-0.2-0.03
			c0.95-3.22-2.27-6.57-5.54-5.54c-1.66,0.52-4.62,2.12-6.45,1.5C272.57,101.08,270.21,109.77,275.68,111.63L275.68,111.63z"/>
		<path class="st2" d="M273.2,111.15c5.82,20.07,12.39,39.92,18.12,60.02c1.59,5.56,10.27,3.2,8.68-2.39
			c-5.74-20.1-12.3-39.95-18.12-60.02C280.27,103.21,271.58,105.57,273.2,111.15L273.2,111.15z"/>
		<path class="st2" d="M280.96,148.41c5.08-1.95,9.77-4.43,13.31-8.67c3.16-3.78,5.14-8.11,7.23-12.53
			c1.96-4.15,1.15-9.17-3.05-11.63c-3.7-2.16-9.66-1.12-11.63,3.05c-1.54,3.25-2.97,6.59-4.99,9.58c-0.35,0.49-0.29,0.43,0.18-0.19
			c-0.24,0.3-0.5,0.58-0.76,0.86c-0.21,0.2-1.74,1.62-1.18,1.18c0.5-0.4-1.3,0.81-1.61,0.98c-0.53,0.3-1.86,0.92-2.01,0.98
			c-4.28,1.65-7.24,5.72-5.94,10.46c1.13,4.09,6.15,7.59,10.46,5.94L280.96,148.41z"/>
		<path class="st2" d="M296.99,112.12c0,0.75-0.04,1.5-0.14,2.24l0.07-0.53c-0.18,1.34-0.51,2.66-1.02,3.91
			c-0.18,0.45-0.03,1.15,0.2,1.54c0.24,0.41,0.72,0.81,1.2,0.92c0.51,0.12,1.09,0.09,1.54-0.2c0.45-0.29,0.71-0.69,0.92-1.2
			c0.86-2.08,1.26-4.44,1.24-6.68c-0.01-1.05-0.91-2.05-2-2c-1.09,0.05-2.01,0.88-2,2H296.99z"/>
		<path class="st2" d="M295.73,113.91c-0.39,1.09-0.79,2.18-1,3.33c-0.08,0.27-0.1,0.53-0.04,0.8c0.01,0.27,0.09,0.51,0.24,0.74
			c0.24,0.41,0.72,0.81,1.2,0.92c0.51,0.12,1.09,0.09,1.54-0.2c0.42-0.27,0.83-0.69,0.92-1.2c0.21-1.14,0.61-2.24,1-3.33
			c0.17-0.47,0.04-1.13-0.2-1.54c-0.24-0.41-0.72-0.81-1.2-0.92c-0.51-0.12-1.09-0.09-1.54,0.2l-0.4,0.31
			c-0.25,0.25-0.42,0.54-0.51,0.88L295.73,113.91z"/>
		<path class="st2" d="M298.05,114.81c0.18,0.67,0.3,1.34,0.39,2.02l-0.07-0.53c0.22,1.65,0.27,3.31,0.44,4.96
			c0.06,0.54,0.19,1.01,0.59,1.41c0.35,0.35,0.92,0.61,1.41,0.59c0.99-0.04,2.11-0.89,2-2c-0.25-2.5-0.26-5.07-0.9-7.52
			c-0.27-1.01-1.44-1.73-2.46-1.4C298.43,112.67,297.77,113.72,298.05,114.81L298.05,114.81z"/>
		<path class="st2" d="M291.77,140.73c0.18,0.24,0.33,0.5,0.45,0.77l-0.2-0.48c0.39,0.94,0.43,1.96,0.62,2.95l3.66-1.54l-0.23-0.39
			c-0.26-0.43-0.71-0.78-1.2-0.92s-1.12-0.07-1.54,0.2c-0.42,0.27-0.8,0.69-0.92,1.2c-0.12,0.51-0.08,1.07,0.2,1.54l0.23,0.39
			c0.51,0.86,1.58,1.2,2.5,0.82c0.38-0.16,0.76-0.44,0.96-0.82l0.2-0.48c0.1-0.35,0.1-0.71,0-1.06c-0.12-0.65-0.18-1.31-0.32-1.96
			c-0.07-0.32-0.15-0.63-0.28-0.93c-0.18-0.46-0.37-0.91-0.67-1.3c-0.13-0.23-0.3-0.42-0.52-0.56c-0.19-0.18-0.42-0.3-0.68-0.36
			c-0.48-0.13-1.12-0.07-1.54,0.2c-0.42,0.27-0.8,0.69-0.92,1.2c-0.12,0.51-0.12,1.12,0.2,1.54V140.73z"/>
		<path class="st2" d="M293.19,138.4c0.18,0.31,0.05,1.06,0.03,1.47c-0.02,0.73-0.01,1.41,0.15,2.13l3.66-1.54
			c-0.13-0.3-0.47-0.63-0.76-0.78c-1-0.52-2.11-0.22-2.74,0.72c-0.53,0.78-0.2,1.96-0.07,2.8c0.18,1.25,0.4,2.5,0.61,3.75
			c0.56,3.3,1.08,6.62,1.69,9.91c0.43,2.3,0.95,4.56,1.21,6.9c0.26,2.34,0.4,4.78,0.45,7.18c0.1,4.95-0.17,9.9-0.43,14.85
			c-0.13,2.57,3.87,2.57,4,0c0.48-9.43,0.97-18.97-1-28.27c-0.71-3.32-1.22-6.69-1.79-10.04c-0.24-1.43-0.49-2.86-0.72-4.3
			c-0.07-0.46-0.15-0.91-0.21-1.37c0.09,0.66-0.03-0.07,0-0.1c0-0.05,0-0.1-0.01-0.16c0-0.38-0.1-0.09-0.26,0.87l-2.74,0.72h0.01
			l-0.72-0.71c0,0,0.02,0.04,0.03,0.06c0.94,2.15,4.14,0.57,3.66-1.54c-0.35-1.52,0.32-3.03-0.59-4.56
			c-1.31-2.22-4.77-0.21-3.45,2.02L293.19,138.4z"/>
		<path class="st2" d="M286.58,160.7c1.82,7.39,2.05,15.05,3.82,22.45c0.6,2.5,4.46,1.44,3.86-1.06c-1.77-7.4-2.01-15.06-3.82-22.45
			C289.83,157.14,285.97,158.2,286.58,160.7z"/>
		<path class="st2" d="M293.4,142.91c2.86,9.04,4.9,18.4,5.25,27.9c0.09,2.57,4.09,2.58,4,0c-0.36-9.84-2.43-19.59-5.39-28.96
			C296.49,139.4,292.62,140.45,293.4,142.91z"/>
		<path class="st2" d="M298.54,196.55c0.16-0.34,0.33-0.65,0.55-0.95l-1.49,1.92c0.41-0.51,0.9-0.91,1.39-1.34
			c1.06-0.93,1.94-2.12,2.71-3.29c0.69-1.09,1.07-2.27,1.13-3.53c0.28-1.26,0.23-2.53-0.17-3.79c-0.61-2.2-2.31-4.59-4.37-5.68
			c-2.2-1.16-4.88-1.75-7.32-0.96c-2.44,0.79-4.28,2.22-5.68,4.37c-0.08,0.13-0.16,0.25-0.25,0.36l1.49-1.92
			c-0.47,0.6-1.06,1.06-1.62,1.57c-0.27,0.24-0.51,0.5-0.74,0.78c-0.73,0.89-1.55,1.81-2.04,2.87c-0.69,1.09-1.07,2.27-1.13,3.53
			c-0.28,1.26-0.23,2.53,0.17,3.79c0.61,2.2,2.31,4.59,4.37,5.68c2.2,1.16,4.88,1.75,7.32,0.96
			C295.08,200.2,297.52,198.76,298.54,196.55L298.54,196.55z"/>
		<path class="st2" d="M301.99,193.29c0.08-0.41,0.2-0.8,0.36-1.19l-0.96,2.27c0.98-2.12,2.28-3.93,2.92-6.24
			c0.64-2.31,0.28-5.2-0.96-7.32c-1.15-1.97-3.41-3.85-5.68-4.37c-2.43-0.55-5.16-0.43-7.32,0.96s-3.68,3.24-4.37,5.68
			c-0.09,0.31-0.18,0.59-0.3,0.88l0.96-2.27c-1.01,2.18-2.5,4.12-2.98,6.54s-0.38,5.04,0.96,7.32c1.15,1.97,3.41,3.85,5.68,4.37
			c2.43,0.55,5.16,0.43,7.32-0.96C299.62,197.67,301.5,195.69,301.99,193.29L301.99,193.29z"/>
		<path class="st2" d="M291.84,194.78c12.23,0,12.25-19,0-19S279.59,194.78,291.84,194.78z"/>
		<path class="st2" d="M297.49,193.61c12.23,0,12.25-19,0-19S285.24,193.61,297.49,193.61z"/>
		<path class="st2" d="M299.15,189.62c12.23,0,12.25-19,0-19S286.9,189.62,299.15,189.62z"/>
		<path class="st2" d="M301.31,186.96c12.23,0,12.25-19,0-19S289.06,186.96,301.31,186.96z"/>
		<path class="st2" d="M303.47,184.13c12.23,0,12.25-19,0-19S291.22,184.13,303.47,184.13z"/>
		<path class="st2" d="M303.31,181.31c12.23,0,12.25-19,0-19S291.06,181.31,303.31,181.31z"/>
		<path class="st2" d="M303.81,180.31c12.23,0,12.25-19,0-19S291.56,180.31,303.81,180.31z"/>
		<path class="st2" d="M312.29,169.31c1.05-2.87,1.73-6.08,1.51-9.14c-0.19-2.6-2.16-5.13-5-5c-2.55,0.11-5.2,2.21-5,5
			c0.05,0.65,0.03,1.28,0.01,1.92c-0.06,0.61-0.06,0.67,0,0.2c-0.04,0.26-0.09,0.52-0.14,0.77c-0.24,1.22-0.59,2.42-1.02,3.59
			c-0.9,2.46,1.01,5.58,3.49,6.15C308.96,173.44,311.33,171.94,312.29,169.31z"/>
		<path class="st2" d="M309.5,157.05c1.77-1.41,2.2-3.5,3.12-5.45l-1.86-0.5c0.3,4.54,0.42,9.11,0.17,13.66l1.86-0.5
			c-1.65-3.48-2.06-7.4-3.52-10.96l-1.67,0.97c1.66,1.48,1.34,4.48,1.38,6.49c0.03,1.2,0.12,2.37,0.43,3.54
			c0.43,1.62,1.1,3.15,1.04,4.86c-0.05,1.29,1.95,1.29,2,0c0.07-1.79-0.55-3.41-1.03-5.1c-0.38-1.33-0.42-2.63-0.45-4
			c-0.05-2.4,0-5.46-1.96-7.2c-0.67-0.59-2.08-0.03-1.67,0.97c1.53,3.72,1.98,7.79,3.72,11.44c0.45,0.96,1.81,0.41,1.86-0.5
			c0.24-4.55,0.13-9.11-0.17-13.66c-0.06-0.9-1.41-1.48-1.86-0.5c-0.83,1.77-1.2,3.77-2.8,5.04
			C307.08,156.45,308.51,157.86,309.5,157.05L309.5,157.05z"/>
		<path class="st2" d="M311.83,157.92c0.04-0.51,0-1.02,0.07-1.53l-0.04,0.27c0.03-0.19,0.07-0.37,0.14-0.55
			c0.09-0.22,0.02-0.57-0.1-0.77s-0.36-0.41-0.6-0.46c-0.26-0.06-0.54-0.05-0.77,0.1l-0.2,0.16c-0.12,0.12-0.21,0.27-0.26,0.44
			c-0.06,0.16-0.11,0.32-0.13,0.49c-0.04,0.26-0.07,0.52-0.08,0.78c-0.01,0.36,0,0.72-0.03,1.07c-0.02,0.24,0.12,0.54,0.29,0.71
			c0.17,0.17,0.46,0.3,0.71,0.29s0.53-0.1,0.71-0.29C311.72,158.44,311.81,158.2,311.83,157.92L311.83,157.92z"/>
		<path class="st2" d="M309.58,152.38c-0.38,1.32-0.82,2.62-1.16,3.95c-0.13,0.51,0.17,1.11,0.7,1.23s1.09-0.16,1.23-0.7
			c0.35-1.33,0.78-2.63,1.16-3.95c0.15-0.5-0.18-1.11-0.7-1.23C310.29,151.56,309.74,151.84,309.58,152.38z"/>
		<path class="st2" d="M316.47,142.34c9.39-15.66,17.76-31.93,27.59-47.33c4.46-6.99,15.64-19.53,7.83-27.48
			c-7.81-7.95-19.7,4.2-12.02,12.02l0.18,0.18l-2.19-3.75c0.3-3.47,0.21-4.37-0.27-2.73l0.26-0.64c-0.65,0.58-1.1,2.12-1.54,2.89
			c-0.99,1.74-2.05,3.44-3.13,5.12c-2.76,4.3-5.56,8.55-8.2,12.93c-7.99,13.25-15.22,26.94-23.18,40.21
			c-5.64,9.41,9.05,17.96,14.68,8.58H316.47z"/>
		<path class="st2" d="M345.71,77.71c9.01,0,9.02-14,0-14C336.69,63.71,336.69,77.71,345.71,77.71z"/>
		<path class="st2" d="M369.32,124.77c9.01,0,9.02-14,0-14C360.3,110.77,360.3,124.77,369.32,124.77z"/>
		<path class="st2" d="M376.95,114.58c-1.43-3.44,0.64,0.52-0.77,1.46c0.39-0.26,0.61-2.6,0.71-3.12c0.59-3.2-0.26-5.14-2.06-7.58
			c-0.36-0.49-2.07-3.22-0.81-0.62c-0.37-0.76-0.57-1.68-0.84-2.48c-0.56-1.59-1.16-3.15-1.79-4.71c-1.48-3.62-3.18-7.02-5.54-10.16
			c-2.8-3.72-3.65-5.61-5.89-10.22c-2.42-4.99-9.44-4.09-12.09,0l-1.83,2.83l12.79,1.67L357.5,74c-1.16-6.69-12.32-6.68-13.5,0
			l-0.05,0.28l8.61-4.89c1.56,0.32,0.95,0.88-0.09-1.06c-4.26-7.94-16.35-0.88-12.09,7.07c1.69,3.15,4.76,6.74,8.46,7.49
			c3.43,0.7,7.92-0.96,8.61-4.89l0.05-0.28H344l1.33,7.65c1.1,6.33,9.8,6.29,12.79,1.67l1.83-2.83h-12.09
			c1.67,3.44,3.3,7.01,5.67,10.01c0.64,0.81,1.31,1.59,1.92,2.42c1.06,1.45-0.97-1.82-0.24-0.18c0.61,1.38,1.57,2.76,2.37,4.05
			c-1.71-2.74,0.53,1.23,0.93,2.28c0.4,1.05,0.79,2.11,1.17,3.17c1.14,3.26,2.43,5.58,4.48,8.35l-0.71-5.39
			c-0.77,3.38-1.38,6.05,0,9.37c1.46,3.52,4.62,5.94,8.61,4.89c3.3-0.87,6.34-5.12,4.89-8.61V114.58z"/>
		<path class="st2" d="M369.82,126.93c9.01,0,9.02-14,0-14C360.8,112.93,360.8,126.93,369.82,126.93z"/>
		<path class="st2" d="M362.99,124.59v0.83c-0.03,0.69,0.12,1.33,0.43,1.93c0.2,0.62,0.55,1.16,1.03,1.61
			c0.45,0.49,0.99,0.83,1.61,1.03c0.6,0.31,1.24,0.46,1.93,0.43l1.33-0.18c0.85-0.24,1.58-0.67,2.21-1.29l0.78-1.01
			c0.45-0.78,0.68-1.62,0.68-2.52v-0.83c0.03-0.69-0.12-1.33-0.43-1.93c-0.2-0.62-0.55-1.16-1.03-1.61
			c-0.45-0.49-0.99-0.83-1.61-1.03c-0.6-0.31-1.24-0.46-1.93-0.43l-1.33,0.18c-0.85,0.24-1.58,0.67-2.21,1.29l-0.78,1.01
			C363.22,122.85,362.99,123.69,362.99,124.59L362.99,124.59z"/>
		<path class="st2" d="M370.32,129.25c6.43,0,6.45-10,0-10C363.87,119.25,363.87,129.25,370.32,129.25z"/>
		<path class="st2" d="M368.49,132.25c6.43,0,6.45-10,0-10C362.04,122.25,362.04,132.25,368.49,132.25z"/>
		<path class="st2" d="M366.16,134.91c6.43,0,6.45-10,0-10C359.71,124.91,359.71,134.91,366.16,134.91z"/>
		<path class="st2" d="M365.33,136.07c4.5,0,4.51-7,0-7C360.82,129.07,360.82,136.07,365.33,136.07z"/>
		<path class="st2" d="M363.5,137.56c3.86,0,3.87-6,0-6S359.63,137.56,363.5,137.56z"/>
		<path class="st2" d="M361.67,138.73c3.86,0,3.87-6,0-6C357.8,132.73,357.8,138.73,361.67,138.73z"/>
		<path class="st2" d="M359.01,139.72c3.22,0,3.22-5,0-5S355.79,139.72,359.01,139.72z"/>
		<path class="st2" d="M358.18,140.22c3.22,0,3.22-5,0-5S354.96,140.22,358.18,140.22z"/>
		<path class="st2" d="M358.18,140.72c3.22,0,3.22-5,0-5S354.96,140.72,358.18,140.72z"/>
		<path class="st2" d="M336.73,90.83c-4.08-4.26-8.42-8.79-10.57-14.4c-2.39-6.27-4.14-11.09-8.96-16.08l2.06,3.53l-1.22-6.32
			c-1.95-10.1-17.37-5.82-15.43,4.25c0.4,2.07,0.6,4.3,1.22,6.32c0.83,2.7,3.05,4.16,4.54,6.4c0.99,1.49,1.17,2.45,1.72,4.17
			c2.98,9.29,8.64,16.47,15.32,23.44c7.14,7.45,18.44-3.88,11.31-11.31H336.73z"/>
		<path class="st2" d="M340.43,92.23c-9.24-9.64-14.68-21.35-20.23-33.36c-1.81-3.92-7.47-4.9-10.95-2.87
			c-4.02,2.35-4.69,7.01-2.87,10.95c6.17,13.36,12.47,25.89,22.74,36.6C336.26,111,347.56,99.67,340.43,92.23L340.43,92.23z"/>
		<path class="st2" d="M331.86,114.2c1.85,1.34,1.55,5.05,2.31,6.88c1.39,3.35,3.83,6.3,5.29,9.7c1.71,3.97,7.54,4.86,10.95,2.87
			c4.1-2.4,4.59-6.96,2.87-10.95c-0.83-1.93-1.74-3.82-2.82-5.63c-1.08-1.81-1.43-3.02-2.06-5.1c-1.51-4.98-4.3-8.57-8.47-11.6
			c-3.5-2.54-8.92-0.6-10.95,2.87C326.61,107.28,328.34,111.64,331.86,114.2L331.86,114.2z"/>
		<path class="st2" d="M334.9,111.8c10.3,0,10.31-16,0-16S324.59,111.8,334.9,111.8z"/>
		<path class="st2" d="M342.01,120.14c2.39,2.76,3.62,5.55,2.37,9.1c-2.13,6.09,7.53,8.7,9.64,2.66c2.45-7-0.34-13.5-4.94-18.83
			C344.87,108.19,337.82,115.29,342.01,120.14L342.01,120.14z"/>
		<path class="st2" d="M299.52,97.05l2.49,0.67l-4.78-11.75l-1.66,2.66c-2.15,3.44-0.96,9.13,2.87,10.95l3.16,1.5l-3.96-6.91
			c-0.17,5.51,2.45,9.65,4.28,14.6c1.49,4.05,5.42,6.8,9.84,5.59c4.42-1.21,6.68-5.65,5.59-9.84c-0.61-2.36-1.15-4.75-1.85-7.08
			c-1.38-4.6-5.02-5.87-9.06-7.48s-8.79,1.75-9.84,5.59c-1.25,4.56,1.56,8.23,5.59,9.84l3.33,1.33l-5.59-5.59l2,7.65l15.43-4.25
			c-1.19-3.23-3.81-6.81-3.7-10.34c0.08-2.61-1.54-5.76-3.96-6.91l-3.16-1.5l2.87,10.95l1.66-2.66c2.74-4.38,0.1-10.45-4.78-11.75
			l-2.49-0.67c-9.96-2.66-14.21,12.77-4.25,15.43L299.52,97.05z"/>
		<path class="st2" d="M310.29,113.8c10.3,0,10.31-16,0-16S299.98,113.8,310.29,113.8z"/>
		<path class="st2" d="M313.28,122.11c10.3,0,10.31-16,0-16S302.97,122.11,313.28,122.11z"/>
		<path class="st2" d="M315.95,129.26c10.3,0,10.31-16,0-16S305.64,129.26,315.95,129.26z"/>
		<path class="st2" d="M321.76,137.9c8.36,0,8.38-13,0-13S313.38,137.9,321.76,137.9z"/>
		<path class="st2" d="M322.26,145.05c8.36,0,8.38-13,0-13S313.88,145.05,322.26,145.05z"/>
		<path class="st2" d="M323.93,145.39c8.36,0,8.38-13,0-13S315.55,145.39,323.93,145.39z"/>
		<path class="st2" d="M325.59,151.54c8.36,0,8.38-13,0-13S317.21,151.54,325.59,151.54z"/>
		<path class="st2" d="M320.42,148.2v0.33c-0.03,0.89,0.15,1.73,0.56,2.5c0.26,0.81,0.71,1.5,1.34,2.09
			c0.59,0.63,1.29,1.08,2.09,1.34c0.77,0.41,1.61,0.59,2.5,0.56l1.73-0.23c1.1-0.31,2.06-0.87,2.87-1.67l1.02-1.32
			c0.59-1.01,0.88-2.11,0.89-3.28v-0.33c0.03-0.89-0.15-1.73-0.56-2.5c-0.26-0.81-0.71-1.5-1.34-2.09
			c-0.59-0.63-1.29-1.08-2.09-1.34c-0.77-0.41-1.61-0.59-2.5-0.56l-1.73,0.23c-1.1,0.31-2.06,0.87-2.87,1.67l-1.02,1.32
			C320.72,145.93,320.43,147.03,320.42,148.2z"/>
		<path class="st2" d="M329.41,155.36c8.36,0,8.38-13,0-13S321.03,155.36,329.41,155.36z"/>
		<path class="st2" d="M328.91,160.35c8.36,0,8.38-13,0-13S320.53,160.35,328.91,160.35z"/>
		<path class="st2" d="M334.9,166.68c14.16,0,14.18-22,0-22S320.72,166.68,334.9,166.68z"/>
		<path class="st2" d="M334.4,168.01c14.16,0,14.18-22,0-22S320.22,168.01,334.4,168.01z"/>
		<path class="st2" d="M339.89,166.85c14.16,0,14.18-22,0-22C325.71,144.85,325.71,166.85,339.89,166.85z"/>
		<path class="st2" d="M341.38,167.84c14.16,0,14.18-22,0-22S327.2,167.84,341.38,167.84z"/>
		<path class="st2" d="M346.04,168.68c15.44,0,15.47-24,0-24S330.57,168.68,346.04,168.68z"/>
		<path class="st2" d="M352.03,168.51c15.44,0,15.47-24,0-24S336.56,168.51,352.03,168.51z"/>
		<path class="st2" d="M358.18,168.01c15.44,0,15.47-24,0-24S342.71,168.01,358.18,168.01z"/>
		<path class="st2" d="M361.67,168.68c15.44,0,15.47-24,0-24S346.2,168.68,361.67,168.68z"/>
		<path class="st2" d="M365.99,168.51c17.37,0,17.4-27,0-27C348.59,141.51,348.59,168.51,365.99,168.51z"/>
		<path class="st2" d="M370.81,166.69c17.37,0,17.4-27,0-27S353.41,166.69,370.81,166.69z"/>
		<path class="st2" d="M374.31,164.02c17.37,0,17.4-27,0-27S356.91,164.02,374.31,164.02z"/>
		<path class="st2" d="M378.13,156.87c13.51,0,13.53-21,0-21S364.6,156.87,378.13,156.87z"/>
		<path class="st2" d="M380.29,154.54c13.51,0,13.53-21,0-21S366.76,154.54,380.29,154.54z"/>
		<path class="st2" d="M382.62,146.89c10.94,0,10.96-17,0-17S371.66,146.89,382.62,146.89z"/>
		<path class="st2" d="M383.45,142.89c9.65,0,9.67-15,0-15C373.78,127.89,373.78,142.89,383.45,142.89z"/>
		<path class="st2" d="M385.11,137.57c8.36,0,8.38-13,0-13C376.73,124.57,376.73,137.57,385.11,137.57z"/>
		<path class="st2" d="M385.61,130.75c5.79,0,5.8-9,0-9C379.81,121.75,379.81,130.75,385.61,130.75z"/>
		<path class="st2" d="M385.61,127.42c5.79,0,5.8-9,0-9C379.81,118.42,379.81,127.42,385.61,127.42z"/>
		<path class="st2" d="M381.61,124.09c-0.13,2.33-0.02,4.66-0.17,6.98c-0.15,2.32,2.17,4.6,4.5,4.5c2.56-0.11,4.35-1.98,4.5-4.5
			c0.14-2.33,0.03-4.66,0.17-6.98c0.14-2.32-2.16-4.6-4.5-4.5C383.56,119.7,381.75,121.57,381.61,124.09L381.61,124.09z"/>
		<path class="st2" d="M386.11,110.45c-0.38,3.31-1.22,7.01-2.79,10.05c-0.37,0.72-0.19,1.63,0.54,2.05
			c0.67,0.39,1.68,0.18,2.05-0.54c1.86-3.59,2.74-7.57,3.2-11.56c0.09-0.81-0.75-1.5-1.5-1.5
			C386.72,108.95,386.2,109.64,386.11,110.45L386.11,110.45z"/>
		<path class="st2" d="M385.83,114.68c0.24,1.39,0.6,2.76,0.9,4.15c0.07,0.34,0.14,0.67,0.2,1.01c0.03,0.18,0.06,0.36,0.09,0.54
			c0.08,0.5-0.03-0.28,0.03,0.22c0.08,0.72,0.11,1.44,0.06,2.16c-0.05,0.78,0.72,1.53,1.5,1.5c0.85-0.04,1.45-0.66,1.5-1.5
			c0.19-3.03-0.88-5.93-1.38-8.88c-0.13-0.78-1.13-1.28-1.85-1.05C386.04,113.1,385.69,113.84,385.83,114.68L385.83,114.68z"/>
		<path class="st2" d="M385.88,114.34c0.09,0.08,0.17,0.16,0.25,0.24c0.04,0.04,0.08,0.09,0.12,0.13c0.12,0.12-0.21-0.31-0.08-0.11
			c0.13,0.2,0.25,0.41,0.36,0.63c0.11,0.22-0.1-0.29-0.05-0.12c0.02,0.06,0.05,0.12,0.07,0.18c0.04,0.12,0.08,0.24,0.12,0.37
			c0.07,0.25,0.13,0.51,0.17,0.77c0.02,0.13,0.07,0.59,0.02,0.07c0.01,0.13,0.03,0.26,0.04,0.39c0.02,0.25,0.04,0.49,0.05,0.74
			c0.02,0.48,0.01,0.97,0,1.45c-0.03,0.79,0.71,1.54,1.5,1.5c0.83-0.04,1.47-0.66,1.5-1.5c0.04-1.19-0.01-2.37-0.23-3.54
			s-0.74-2.52-1.71-3.34c-0.6-0.51-1.54-0.63-2.12,0c-0.51,0.56-0.64,1.58,0,2.12L385.88,114.34z"/>
		<path class="st3" d="M206.29,139.63c0.3,0.07,0.61,0.14,0.93,0.22l0.18,0.04c0.32,0.08,0.65,0.16,1,0.24l0.15,0.04
			c0.35,0.09,0.71,0.18,1.08,0.27l0.12,0.03c0.36,0.09,0.73,0.18,1.11,0.28l0.08,0.02c0.37,0.09,0.75,0.19,1.12,0.29l0.25,0.06
			c0.36,0.09,0.72,0.18,1.07,0.28l0.25,0.06c0.37,0.1,0.73,0.19,1.1,0.29l0.18,0.05c0.38,0.1,0.76,0.2,1.13,0.3h0.01
			c0.37,0.1,0.73,0.2,1.08,0.29l0.2,0.05c0.31,0.08,0.62,0.16,0.92,0.24l0.28,0.07c0.29,0.08,0.58,0.15,0.85,0.23l0.19,0.05
			c0.28,0.07,0.55,0.15,0.8,0.21l0.1,0.03c0.26,0.07,0.51,0.14,0.73,0.2h0.02c0.22,0.06,0.42,0.12,0.6,0.17l0.11,0.03
			c0.18,0.05,0.32,0.09,0.45,0.12l0.29,0.08h0.05l0.08,0.04v-0.04c0.02-0.05,0.04-0.15,0.07-0.28v-0.05
			c0.03-0.08,0.05-0.17,0.07-0.27l0.05-0.25c0.01-0.06,0.03-0.13,0.04-0.2l0.04-0.2c0.02-0.08,0.03-0.16,0.05-0.25l0.05-0.24
			c0.02-0.08,0.03-0.16,0.05-0.24v-0.04c0.05-0.2,0.09-0.42,0.14-0.63c0.01-0.07,0.03-0.13,0.04-0.2c0.03-0.17,0.07-0.34,0.1-0.52
			c0.02-0.08,0.03-0.16,0.05-0.24c0.04-0.18,0.07-0.37,0.11-0.55c0.01-0.06,0.02-0.13,0.04-0.19c0.05-0.25,0.09-0.49,0.13-0.73
			l0.02-0.09c0.04-0.2,0.07-0.4,0.1-0.59c0.01-0.07,0.02-0.14,0.03-0.21c0.02-0.15,0.04-0.29,0.06-0.42c0-0.07,0.02-0.14,0.03-0.2
			c0.02-0.13,0.03-0.25,0.04-0.36c0-0.05,0.01-0.11,0.02-0.16c0.01-0.15,0.02-0.29,0.02-0.41c0-0.1-0.05-0.18-0.11-0.25
			c-0.01-0.02-0.04-0.03-0.06-0.05c-0.06-0.05-0.14-0.11-0.23-0.15c-0.02-0.01-0.05-0.02-0.08-0.03c-0.11-0.04-0.24-0.08-0.39-0.11
			c-0.02,0-0.04,0-0.05-0.01c-0.17-0.03-0.36-0.06-0.56-0.08c-0.15-0.02-0.31-0.03-0.48-0.04c-0.03,0-0.06,0-0.08,0
			c-0.15,0-0.3-0.02-0.47-0.02c-0.28,0-0.59-0.01-0.9-0.01c-0.05,0-0.1,0-0.15,0c-0.65,0-1.35,0-2.05,0c-0.28,0-0.55,0-0.83,0
			c-0.11,0-0.21,0-0.32,0c-0.26,0-0.51,0-0.76-0.02c-0.11,0-0.22,0-0.33-0.01c-0.21,0-0.42-0.02-0.62-0.03
			c-0.11,0-0.22-0.02-0.33-0.03c-0.2-0.02-0.4-0.04-0.59-0.06c-0.09-0.01-0.18-0.02-0.27-0.03c-0.27-0.04-0.53-0.09-0.77-0.15
			c-3.33-0.83-7-3.08-7-3.08s-0.67,5.13-1.42,7.25c0.28,0.06,0.58,0.13,0.89,0.2l0.1,0.02V139.63z M208.48,135.68
			c1.37,0.66,3.05,1.36,4.69,1.77c1.74,0.43,4,0.42,6.18,0.4c0.7,0,1.62-0.01,2.35,0.01c-0.15,0.89-0.37,2.04-0.61,3.22
			c-3.16-0.85-8.88-2.38-12.99-3.37c0.14-0.67,0.27-1.38,0.39-2.04L208.48,135.68z"/>
		<path class="st3" d="M205.88,153.83c-1.19,0.38,0.58,9.67,0.58,9.67s4.92,1.58,7.96,2.42c3.04,0.83,6.79,1.92,7.79,1.75
			c0.75-3.5,1.33-7.67,1.33-8.42c-4.08-1.33-8.58-3.17-10.75-3.92c-2.17-0.75-4.83-2.17-6.92-1.5H205.88z M221.09,160.82
			c-0.15,1.12-0.39,2.68-0.7,4.32c-1.34-0.31-3.17-0.81-4.44-1.16l-0.94-0.26c-2.01-0.55-4.91-1.45-6.56-1.98
			c-0.36-2.12-0.65-4.36-0.71-5.74c0.88,0.16,1.94,0.58,2.85,0.93c0.5,0.19,0.99,0.38,1.45,0.54c0.78,0.27,1.86,0.68,3.12,1.16
			c1.75,0.67,3.83,1.46,5.92,2.18L221.09,160.82z"/>
		<path class="st3" d="M390.77,110.75c-0.24-2.29-1.3-3.14-2.11-3.45c-4.82-26.58-17.59-50.93-37.14-70.2
			c-24.79-24.45-57.6-37.61-92.37-37.08c-35.29,0.56-68.35,14.41-93.09,38.99c-16.96,16.85-28.71,37.52-34.48,60.06
			c-0.63,0.9-1.14,1.91-1.54,2.85c-1.92,4.42-2.36,8.62-1.4,12.43c-0.75,5.7-1.14,11.49-1.14,17.33c0,15.79,2.8,30.94,7.92,44.99
			c0.01,0.19,0.01,0.38,0.03,0.57c0.59,5.56,3.15,14.5,7.59,16.44c22.21,41.43,65.93,69.67,116.13,69.67
			c65.26,0,119.62-47.87,129.91-110.38c2.17-6.78,3.28-12.74,3.28-17.72C392.36,125.77,391.63,118.83,390.77,110.75L390.77,110.75z
			 M390.08,135.25c0,0.69-0.03,1.4-0.07,2.11c-0.01,0.23-0.04,0.47-0.06,0.7c-0.04,0.48-0.08,0.97-0.14,1.45
			c-0.03,0.27-0.06,0.55-0.1,0.82c-0.06,0.46-0.13,0.93-0.21,1.39c-0.04,0.27-0.08,0.53-0.13,0.8c0,0.04-0.02,0.09-0.03,0.13
			c-0.04,0.24-0.09,0.47-0.14,0.71c-0.1,0.54-0.21,1.09-0.33,1.62c-0.15,0.7-0.31,1.39-0.48,2.07l-0.02,0.06
			c-0.21,0.83-0.43,1.64-0.66,2.44c-0.01,0.04-0.02,0.07-0.03,0.11c-0.22,0.77-0.45,1.53-0.68,2.26c-0.16,0.5-0.32,1.01-0.48,1.48
			c-1.75,5.25-4.08,6.92-11.25,11.08c-0.44,0.26-0.88,0.49-1.33,0.71c-0.14,0.07-0.29,0.13-0.43,0.19c-0.3,0.14-0.6,0.28-0.91,0.41
			c-0.16,0.07-0.33,0.12-0.49,0.18c-0.28,0.11-0.57,0.22-0.85,0.31c-0.17,0.06-0.34,0.1-0.51,0.16c-0.28,0.09-0.55,0.17-0.83,0.25
			c-0.17,0.05-0.34,0.08-0.51,0.13c-0.27,0.07-0.55,0.14-0.82,0.19c-0.17,0.04-0.33,0.06-0.5,0.1c-0.27,0.05-0.54,0.1-0.82,0.15
			c-0.16,0.03-0.32,0.05-0.48,0.07c-0.27,0.04-0.55,0.08-0.82,0.11c-0.15,0.02-0.31,0.03-0.46,0.04c-0.27,0.03-0.55,0.05-0.82,0.07
			c-0.15,0.01-0.29,0.02-0.43,0.03c-0.28,0.02-0.55,0.03-0.82,0.04c-0.13,0-0.26,0-0.4,0c-0.28,0-0.56,0.01-0.83,0.01
			c-0.12,0-0.24,0-0.36,0c-0.28,0-0.56,0-0.84-0.01c-0.1,0-0.21,0-0.31,0c-0.29,0-0.58-0.02-0.87-0.03c-0.07,0-0.14,0-0.21-0.01
			c-1.24-0.06-2.39-0.15-3.42-0.21c-0.17-0.01-0.34-0.02-0.5-0.03c-0.23-0.01-0.49-0.02-0.75-0.04c-0.17,0-0.34-0.02-0.52-0.03
			h-0.02c-0.91-0.04-1.99-0.09-3.17-0.14c-0.86-0.04-1.75-0.07-2.7-0.11c-0.21,0-0.41-0.02-0.62-0.02c-0.25,0-0.5-0.02-0.75-0.03
			c-0.28-0.01-0.56-0.02-0.84-0.03c-0.24,0-0.49-0.02-0.73-0.02c-0.28,0-0.56-0.02-0.84-0.03c-0.25,0-0.5-0.02-0.76-0.02
			c-0.29,0-0.59-0.02-0.88-0.03c-0.23,0-0.47-0.01-0.7-0.02c-0.3,0-0.6-0.02-0.91-0.02c-0.23,0-0.45-0.01-0.68-0.02
			c-0.3,0-0.59-0.01-0.89-0.02c-0.22,0-0.44,0-0.66-0.01c-0.29,0-0.58-0.01-0.87-0.01c-0.21,0-0.41,0-0.61,0c-0.28,0-0.56,0-0.83,0
			c-0.19,0-0.39,0-0.57,0c-0.28,0-0.55,0-0.82,0c-0.16,0-0.32,0-0.48,0c-0.28,0-0.55,0-0.81,0c-0.12,0-0.25,0-0.37,0
			c-0.37,0-0.71,0.01-1.03,0.02c-0.66,0.02-1.24,0.02-1.75,0.01c-0.5-0.01-0.92-0.05-1.29-0.09c-0.18-0.03-0.35-0.05-0.51-0.09
			c-0.16-0.04-0.3-0.07-0.43-0.11c-0.15-0.05-0.29-0.11-0.42-0.17c-0.04-0.02-0.07-0.04-0.11-0.06c-0.09-0.05-0.17-0.1-0.25-0.15
			c-0.03-0.02-0.07-0.05-0.1-0.07c-0.08-0.06-0.15-0.12-0.22-0.18c-0.02-0.02-0.05-0.05-0.07-0.07c-0.18-0.18-0.34-0.39-0.49-0.63
			c-0.02-0.03-0.05-0.07-0.07-0.11c-0.06-0.09-0.12-0.19-0.17-0.28c-0.03-0.06-0.07-0.12-0.11-0.18c-0.06-0.11-0.13-0.22-0.2-0.34
			c-0.09-0.15-0.19-0.31-0.29-0.48c-1.42-2.25-1.67-8.08-3.67-11.08s-1.83-5.25-1.83-5.25l-0.58-2.58c-0.58-2.58-3-5.25-3-5.25
			s-3.83,3.5-4.33,4.83c-0.5,1.33-1.25,2.5-4.67,1.42c-4.58-1.5-5.25-2.08-6.25-5.33s-0.83-2.67,0.5-5.67
			c1.33-3,6.23-12.42,6.23-12.42s0.86-0.5-2.81-9.42c-0.21-0.51-0.42-0.98-0.62-1.43c-0.07-0.15-0.13-0.28-0.2-0.42
			c-0.14-0.3-0.28-0.58-0.42-0.85c-0.08-0.15-0.15-0.3-0.23-0.44c-0.13-0.25-0.26-0.49-0.39-0.72c-0.07-0.13-0.14-0.26-0.21-0.38
			c-0.18-0.3-0.36-0.59-0.53-0.86c-0.1-0.16-0.21-0.31-0.31-0.46c-0.08-0.12-0.16-0.24-0.24-0.35c-0.12-0.17-0.24-0.32-0.35-0.48
			c-0.05-0.07-0.11-0.14-0.16-0.21c-0.13-0.17-0.26-0.34-0.39-0.49c-0.24-0.29-0.48-0.56-0.71-0.82c-0.84-0.91-1.6-1.6-2.28-2.34
			c-0.05-0.06-0.1-0.12-0.15-0.18c-0.1-0.11-0.2-0.22-0.29-0.34c-0.07-0.09-0.14-0.18-0.21-0.28c-0.07-0.09-0.14-0.19-0.21-0.29
			c-0.09-0.12-0.16-0.26-0.25-0.39c-0.05-0.08-0.1-0.15-0.15-0.24c-0.13-0.22-0.24-0.46-0.36-0.71c-1.75-3.92-3.33-11-1.92-14.92
			c1.42-3.92,7.17-3.25,11.5-2.25c4.33,1,4.42,5.58,6.67,11.67c0.31,0.85,0.64,1.7,0.96,2.53l0.05,0.12
			c0.32,0.82,0.64,1.62,0.95,2.39c0.13,0.32,0.25,0.62,0.37,0.92v0.03c0.16,0.38,0.32,0.75,0.46,1.1c1.04,2.5,1.88,4.37,2.12,4.91
			l0.03,0.07l0.04,0.1c0,0,2.75-5.25,4.17-8.92c-0.03-0.04-0.07-0.08-0.1-0.12c-0.2-0.24-0.4-0.51-0.62-0.81
			c-2.45-3.33-6.26-9.97-7.61-12.35l-0.02-0.03c-0.09-0.16-0.17-0.31-0.24-0.43l-0.03-0.06c-0.13-0.23-0.21-0.37-0.21-0.37
			l-2.25-4.67c-2.25-4.67-8.5-15.42-8.5-15.42c-0.09-0.16-0.16-0.35-0.21-0.55c-0.02-0.08-0.02-0.17-0.03-0.26
			c-0.02-0.13-0.04-0.25-0.04-0.4c0-0.12,0.02-0.24,0.03-0.37c0-0.12,0.01-0.24,0.03-0.37c0.02-0.15,0.06-0.32,0.09-0.48
			c0.02-0.11,0.04-0.21,0.06-0.32c0.05-0.19,0.11-0.39,0.17-0.59c0.03-0.08,0.05-0.17,0.07-0.25c0.08-0.23,0.16-0.46,0.25-0.7
			c0.02-0.06,0.04-0.11,0.06-0.17c0.1-0.27,0.22-0.53,0.33-0.8c0.01-0.02,0.02-0.05,0.03-0.07c0.13-0.29,0.26-0.58,0.4-0.86
			c0.26-0.54,0.52-1.05,0.79-1.54c0.89-1.65,1.7-2.87,1.7-2.87s3.25-0.08,9.83,1.42c0.67,3,2.5,6.42,4.92,11
			c2.42,4.58,11.5,19,11.5,19s3.17-9.33,5.75-14c6.08-10.83,9.33-4.17,13.75-1c0.26,0.19,0.52,0.4,0.78,0.62
			c0.17,0.15,0.35,0.32,0.52,0.48c0.08,0.08,0.17,0.15,0.25,0.23c0.23,0.23,0.47,0.48,0.7,0.74c0.02,0.02,0.04,0.04,0.06,0.07
			c0.26,0.28,0.52,0.58,0.78,0.89c0.22,0.26,0.43,0.53,0.65,0.81c2.14,2.74,4.37,6.35,6.51,10.17c0.03,0.05,0.06,0.11,0.09,0.16
			c0.81,1.45,1.61,2.92,2.39,4.39c0.08,0.15,0.16,0.3,0.24,0.45c0.37,0.69,0.73,1.39,1.09,2.07c10.33,20.25,9.08,24.5,8.33,30.92
			c-0.65,5.6-5.42,12.5-10.33,15.08c-4.17,2.19-6.17,2.08-7.92,2s0.92-1.92,2.75-3.5c4.75-3.67,5.08-12,3.58-21.42
			s-7.17-18.83-10.17-22.67c-3-3.83-6.58-1.5-7.75,0.17c-1.17,1.67-4.58,7.17-4.58,7.17s2.17,7.33,8.17,14.75s5.33,12,4.92,15.75
			c-0.42,3.75-0.67,5-2,5.08c-0.1,0-0.22,0.01-0.34,0.01c-0.03,0-0.07,0-0.11,0c-0.11,0-0.23,0-0.35,0h-0.11
			c-0.16,0-0.34,0-0.53-0.01c-0.21,0-0.43-0.02-0.66-0.03c-0.21-0.01-0.43-0.03-0.66-0.05h-0.03c-0.23-0.02-0.46-0.04-0.71-0.07
			c-0.44-0.05-0.9-0.1-1.37-0.17h-0.06c-0.46-0.08-0.93-0.16-1.4-0.26c-0.03,0-0.06-0.01-0.09-0.02c-0.47-0.1-0.95-0.21-1.42-0.34
			c-0.03,0-0.05-0.01-0.08-0.02c-0.49-0.14-0.98-0.29-1.46-0.46c-3.64-1.33-2.86-4.42-4.03-7.17c-1.17-2.75-6.58-12.92-6.58-12.92
			s-4.33,9.67-6.5,13.75c0.42,2.75,5.92,17.42,5.92,17.42s2.58,2.25,14,2c0.78-0.02,1.54-0.05,2.28-0.09
			c0.28-0.01,0.56-0.03,0.84-0.04c0.55-0.03,1.08-0.07,1.61-0.12c0.5-0.04,0.98-0.09,1.46-0.14c0.49-0.05,0.99-0.1,1.46-0.16
			c0.31-0.04,0.6-0.09,0.9-0.13c0.4-0.06,0.81-0.12,1.2-0.18c0.33-0.05,0.65-0.11,0.96-0.17c0.34-0.06,0.68-0.13,1.02-0.2
			c0.31-0.06,0.62-0.13,0.93-0.2c0.33-0.07,0.65-0.15,0.96-0.23c0.29-0.07,0.58-0.14,0.85-0.22c0.36-0.1,0.7-0.2,1.04-0.3
			c0.35-0.1,0.7-0.21,1.04-0.32c0.39-0.13,0.77-0.25,1.14-0.39c0.24-0.09,0.47-0.18,0.7-0.26c0.28-0.11,0.57-0.22,0.84-0.33
			c0.23-0.09,0.46-0.19,0.68-0.29c0.27-0.12,0.53-0.23,0.79-0.35c0.21-0.1,0.42-0.19,0.62-0.29c0.28-0.14,0.56-0.28,0.84-0.42
			c0.17-0.09,0.34-0.17,0.5-0.25c0.42-0.22,0.83-0.45,1.23-0.68c0.14-0.08,0.26-0.16,0.4-0.24c0.28-0.17,0.56-0.34,0.83-0.51
			c0.15-0.1,0.31-0.2,0.46-0.3c0.25-0.16,0.49-0.32,0.73-0.49c0.14-0.1,0.29-0.2,0.43-0.3c0.25-0.18,0.5-0.36,0.74-0.54
			c0.12-0.09,0.23-0.17,0.35-0.26c0.35-0.27,0.7-0.53,1.05-0.81c0.26-0.2,0.51-0.43,0.77-0.67c0.06-0.06,0.12-0.11,0.18-0.17
			c0.25-0.24,0.5-0.5,0.74-0.77c0.02-0.03,0.05-0.06,0.07-0.08c0.23-0.25,0.45-0.52,0.68-0.8c0.06-0.07,0.11-0.14,0.17-0.21
			c0.24-0.3,0.47-0.61,0.71-0.94c0.04-0.05,0.07-0.11,0.11-0.16c0.21-0.29,0.41-0.59,0.61-0.9c0.05-0.08,0.1-0.15,0.15-0.23
			c0.23-0.35,0.45-0.71,0.67-1.07c0.04-0.07,0.08-0.14,0.12-0.21c0.2-0.33,0.39-0.67,0.58-1.01c0.04-0.07,0.08-0.14,0.12-0.21
			c0.22-0.39,0.43-0.78,0.63-1.18c0.04-0.08,0.08-0.15,0.12-0.23c0.19-0.37,0.38-0.74,0.56-1.11c0.02-0.05,0.05-0.09,0.07-0.14
			c0.2-0.42,0.4-0.83,0.6-1.25c0.03-0.07,0.06-0.14,0.1-0.21c0.19-0.42,0.38-0.84,0.56-1.25c0.19-0.44,0.37-0.87,0.55-1.3l0.07-0.16
			c0.36-0.86,0.69-1.71,1-2.53l0.03-0.08c0.32-0.85,0.6-1.66,0.86-2.43c0.22-0.66,0.42-1.28,0.59-1.86
			c0.07-0.25,0.14-0.49,0.21-0.72l0.03-0.11c0.05-0.19,0.1-0.37,0.15-0.55c0.01-0.05,0.03-0.1,0.04-0.15
			c0.04-0.16,0.08-0.31,0.11-0.46c0.01-0.05,0.02-0.1,0.03-0.14c0.04-0.18,0.08-0.36,0.11-0.51c0.06-0.27,0.11-0.52,0.17-0.76
			c0.02-0.09,0.04-0.16,0.06-0.25c0.04-0.14,0.07-0.27,0.11-0.4c0.03-0.1,0.06-0.19,0.09-0.28c0.03-0.09,0.06-0.18,0.08-0.26
			c0.03-0.1,0.07-0.18,0.1-0.27c0.02-0.06,0.05-0.12,0.07-0.17c0.04-0.09,0.08-0.17,0.12-0.25c0.02-0.03,0.03-0.07,0.05-0.1
			c0.04-0.08,0.09-0.15,0.13-0.21c0.01-0.02,0.02-0.03,0.03-0.05c0.05-0.07,0.09-0.12,0.14-0.17l0.02-0.02
			c0.05-0.05,0.1-0.09,0.15-0.12c0.08-0.05,0.17-0.07,0.24-0.06c0,0,0.1,0.02,0.14,0.05c0,0,0.09,0.07,0.13,0.11
			c0.11,0.12,0.2,0.3,0.28,0.53c0,0.03,0.02,0.05,0.03,0.08c0.03,0.09,0.05,0.18,0.07,0.29c0,0.03,0.02,0.07,0.02,0.1
			c0.03,0.13,0.05,0.27,0.06,0.42c0.28,2.68,0.55,5.23,0.79,7.78c0.37,4.02,0.65,8.07,0.75,12.66c0,0.08,0,0.17,0,0.25
			c0,0.08,0,0.17,0,0.25c0.02,1.07,0.03,2.17,0.03,3.31L390.08,135.25z M384.3,110.87c-4.01-13.73-11.41-28.67-24.34-43.22
			c3.45-7.34,2.72-13.41,1.2-17.59c13.25,16.68,22.1,36.2,25.96,57.13C385.5,107.55,384.72,109.36,384.3,110.87z M350.43,136.36
			c0.66,0.02,1.19,0.01,1.51,0c3.35-0.21,3.71-3.4,4.12-7.1l0.03-0.25c0.44-3.88,1.03-9.19-5.44-17.19
			c-4.41-5.45-6.66-10.9-7.43-13.03c1.01-1.62,3.11-4.96,3.95-6.15c0.36-0.51,1.27-1.25,2.16-1.27c0.24,0,0.97-0.02,1.93,1.2
			c3.16,4.04,8.36,13.14,9.71,21.62c1.62,10.14,0.7,16.61-2.73,19.26l-0.1,0.08c-0.33,0.28-0.69,0.58-1.04,0.87
			c-2,1.64-3.57,2.93-2.94,4.84c0.13,0.4,0.71,1.7,2.65,1.79s4.35,0.21,9.05-2.26c5.62-2.95,10.79-10.5,11.54-16.83l0.12-1
			c0.76-6.13,1.41-11.43-8.7-31.24c-4.11-7.82-7.69-14.09-11.01-18.16c0.11-0.17,0.23-0.35,0.34-0.52c0.5-0.81,0.94-1.6,1.34-2.39
			c13.2,14.95,20.52,30.29,24.35,44.28c-1.22,5.14-6.15,17.89-11.16,21.86c-4.51,3.57-10.16,6.95-20.36,8.2
			c-0.57-2.18-1.19-4.38-1.88-6.61H350.43z M350.87,143.13c-1.77,0.18-3.66,0.3-5.7,0.34c-7.68,0.17-11.01-0.84-12.11-1.31
			c-1.91-5.12-4.66-12.81-5.36-15.51c1.25-2.43,2.95-6.07,4.26-8.91c1.63,3.12,3.69,7.12,4.34,8.64c0.26,0.61,0.4,1.31,0.56,2.05
			c0.44,2.11,1.04,4.99,4.78,6.36c2.54,0.93,5.3,1.33,7.38,1.49c0.69,2.31,1.31,4.59,1.86,6.85H350.87z M303.58,54.41
			c-4.31-4.26-8.7-8.14-13.06-11.68c0.54-0.34,1.07-0.68,1.59-1.03c5.91-3.98,10.19-8.2,12.74-12.43
			c17.54,7.52,36.53,19.36,53.5,38.07c0.15,0.16,0.28,0.33,0.43,0.49c-0.43,0.87-0.92,1.76-1.49,2.66
			c-0.05,0.08-0.11,0.16-0.16,0.25c-1.05-1.21-2.08-2.19-3.09-2.92c-0.71-0.51-1.41-1.15-2.15-1.82c-2.06-1.87-4.38-3.99-7.48-3.48
			c-2.61,0.42-4.97,2.66-7.43,7.05c-1.49,2.7-3.14,6.79-4.31,9.92c-2.86-4.59-7.37-11.91-8.93-14.88l-0.23-0.44
			c-2.18-4.13-3.9-7.39-4.48-10l-0.31-1.4l-1.4-0.32c-6.78-1.54-10.25-1.47-10.4-1.47l-1.19,0.03L305.08,52
			c-0.46,0.7-0.98,1.53-1.49,2.42L303.58,54.41z M301.25,64.96c0.06,0.11,6.23,10.73,8.42,15.27l1.17,2.42
			c-0.86-0.79-1.95-1.38-3.36-1.71c-7.85-1.81-12.61-0.57-14.15,3.69c-1.77,4.91,0.27,12.8,1.98,16.62c0.86,1.92,2.02,3.08,3.15,4.2
			c0.14,0.14,0.28,0.28,0.42,0.42c-2.5,0.81-5.08,1.62-7.75,2.43c-0.11-0.64-0.19-1.18-0.23-1.56c-0.3-2.73-1.2-5.33-5.67-5.84
			c-2.9-0.33-4.85-0.07-5.32,0c-0.99,0.11-2.02,0.23-3.02,0.43c-5.17-17.18-10.94-32.88-16.29-46.08
			c10.52-2.79,20.09-6.65,27.91-11.3c4.75,3.61,9.54,7.61,14.22,12.02C301.13,59.11,299.94,62.69,301.25,64.96L301.25,64.96z
			 M299.96,141.16c1.3,4.22,2.73,5.19,7.74,6.83c1.14,0.36,2.13,0.51,3.03,0.51c-0.75,0.45-1.33,1.18-1.72,1.68
			c-0.79,1.03-2.12,2.94-3.53,4.96c-0.6,0.86-1.31,1.88-2,2.86c-0.88-4.06-1.84-7.72-2.66-10.84c-1.19-4.55-2.43-9.25-2.01-10.57
			c0.3-0.94,1.07-2.5,1.89-4.15c1.96-3.96,4.41-8.88,4.21-12.74c-0.24-4.55-2.37-8.38-3.18-9.82c-0.07-0.12-0.12-0.21-0.16-0.29
			l-0.34-0.94c0.86,1.24,1.76,2.87,2.72,5.2c2.14,5.21,2.6,7.22,2.7,7.88c-0.94,1.81-4.88,9.45-6.09,12.16
			c-0.19,0.43-0.36,0.78-0.5,1.08c-1.17,2.49-1.04,3.14-0.1,6.18V141.16z M357.23,169.71c1.46,0.1,3.14,0.21,4.97,0.21
			c4.27,0,9.35-0.61,14.25-3.46c4.58-2.66,7.52-4.47,9.59-7.12c-0.38,2.29-0.82,4.42-1.26,6.38c-1.46,5.35-3.24,10.56-5.34,15.61
			c-8.18,12.16-17.95,21.13-27.87,27.81c3.61-14.01,5.27-26.71,4.8-39.47c0.29,0.02,0.57,0.03,0.88,0.05L357.23,169.71z
			 M156.43,179.34c4.14,1.59,8.91,3.13,14.47,4.55c0.51,2.39,1.06,4.7,1.66,6.93c-0.22-0.18-0.42-0.34-0.6-0.49
			c-1.29-1.06-2.41-1.98-3.3-2.52c-0.57-0.34-0.99-0.68-1.36-0.97c-0.72-0.57-1.71-1.36-3.07-1.03c-1.4,0.34-1.99,1.63-2.24,2.18
			c-0.13,0.28-0.26,0.55-0.4,0.82c-0.78,1.57-1.75,3.52-1.09,6.53l0.08,0.35c0.59,2.73,1.39,6.46,7.56,9.83c4.27,2.33,7.71,4.27,9,5
			c0.71,1.2,2.43,3.7,5.01,5.2c4.52,8.69,9.04,14.66,11.8,17.91c-14.46-2.55-22.28-6.59-26.19-9.35
			c-7.32-7.23-13.78-15.31-19.24-24.09c-1.05-1.82-2.12-3.79-3.19-5.93c0.6,0.1,1.18,0.17,1.73,0.17c3.07,0,5.39-1.75,7.68-7.57
			c0.84-2.13,1.36-4.73,1.68-7.49L156.43,179.34z M155.97,158.88c-0.77-4.77-1.78-8.09-1.82-8.22l-0.9-2.91l-2.54,1.69
			c-0.11,0.07-2.61,1.75-5.11,4.55c-2.55,2.86-6.07,7.74-8.24,13.01c-0.74-0.71-1.4-1.4-1.98-2.06c-2.2-11.62-2.86-25.41,0.11-40.68
			c0.21,0.16,0.41,0.33,0.63,0.49c6.02,4.4,12.69,6.7,19.37,6.7c0.27,0,0.54,0,0.81-0.01c-1.55,1.55-2.85,3.15-3.46,4.3
			c-0.65,1.21-1.63,3.04-0.9,5.06c0.53,1.48,1.81,2.61,3.91,3.47l0.75,0.31c3.59,1.47,6.18,2.54,9.57,2.36
			c0.68-0.04,1.27-0.07,1.79-0.11c-0.08,1.81-0.12,3.6-0.14,5.36c-1.9,0.47-3.37,1.34-4.33,2.6c-2.25,2.96-2.61,6.79-0.91,9.76
			c1.02,1.79,2.77,3.27,6.06,4.95c0.49,4.68,1.18,9.11,2.03,13.3c-5.42-1.4-10.1-2.92-14.13-4.5
			C157.28,170.33,156.37,161.4,155.97,158.88L155.97,158.88z M136.4,169.68c-0.21-0.88-0.41-1.78-0.6-2.7
			c0.36,0.36,0.73,0.73,1.14,1.11C136.74,168.62,136.56,169.15,136.4,169.68L136.4,169.68z M135.67,172.77c-1-3-1.9-6.05-2.68-9.15
			c0.43,0.62,0.92,1.26,1.51,1.94c0.41,2.12,0.88,4.16,1.38,6.13c-0.08,0.36-0.14,0.71-0.2,1.07L135.67,172.77z M129.8,117.46
			c1.08,2.21,2.69,4.25,4.83,6.08c-2.96,14.82-2.52,28.28-0.55,39.74c-0.92-1.26-1.54-2.37-1.94-3.27
			c-2.03-9.12-3.11-18.6-3.11-28.33C129.03,126.89,129.3,122.15,129.8,117.46L129.8,117.46z M159.26,125.72
			c-0.54-0.6-1.49-3.79-2.4-6.88c-0.33-1.13-0.7-2.39-1.12-3.76c-0.44-1.45-1.09-2.83-1.87-4.15c3.99,2.26,8.74,4.17,14.23,5.74
			c-0.45,3.88,0.26,5.36,2.38,7.1c-0.2,1.17-0.39,2.32-0.57,3.47c-2.5-0.4-4.61-0.68-5.39-0.76c-1.05-0.1-2.44,0.47-3.9,1.41
			C160.38,126.87,159.62,126.09,159.26,125.72L159.26,125.72z M359.1,66.65c-16.84-18.57-35.87-30.67-53.57-38.57
			c1.79-3.42,2.45-6.83,1.88-10.12c-0.09-0.49-0.21-0.98-0.35-1.46c13.38,2.73,20.78,5.17,24.46,6.63c0.61,0.26,1.2,0.52,1.78,0.79
			c6.07,4.2,11.82,8.95,17.19,14.24c2.85,2.8,5.54,5.72,8.09,8.74c2.09,3.47,4.89,10.59,0.68,19.93c-0.05-0.06-0.1-0.11-0.15-0.17
			L359.1,66.65z M277.55,103.52c0.86-0.16,1.78-0.26,2.68-0.36c0,0,1.83-0.33,4.75,0c2.92,0.33,3.42,1.58,3.67,3.83
			c0.01,0.13,0.03,0.27,0.05,0.42c0.01,0.11,0.03,0.23,0.05,0.35c0,0.04,0.01,0.08,0.02,0.12c0.02,0.16,0.05,0.32,0.08,0.49
			c0.03,0.2,0.06,0.38,0.1,0.58c0.06,0.31,0.12,0.64,0.18,0.99c0.06,0.31,0.13,0.64,0.2,0.98c0.02,0.07,0.03,0.15,0.05,0.22
			c0.06,0.27,0.12,0.56,0.18,0.84c0.02,0.08,0.03,0.16,0.05,0.24c0.08,0.35,0.16,0.72,0.25,1.08c0,0.04,0.02,0.08,0.03,0.12
			c0.08,0.32,0.16,0.65,0.25,0.98c0.03,0.1,0.05,0.2,0.08,0.3c0.08,0.31,0.16,0.62,0.25,0.93c0.02,0.07,0.04,0.14,0.06,0.2
			c0.1,0.37,0.21,0.73,0.32,1.1c0.03,0.09,0.05,0.18,0.08,0.27c0.09,0.28,0.17,0.56,0.26,0.84c0.03,0.1,0.07,0.21,0.1,0.31
			c0.12,0.36,0.24,0.71,0.36,1.05c0-1.75,3.58-4.42,5.67-6c2.08-1.58,2-3.42,2.17-2.94c0.17,0.48,2.92,4.52,3.17,9.36
			c0.25,4.84-4.92,12.67-6,16.08c-1.08,3.42,3.08,13.58,5.58,27.42c0.67-0.17,6.58-9.17,8.58-11.75c2-2.58,1.75-0.83,1.83,3.5
			c0,0.24,0,0.51,0.01,0.8c0,0.1,0,0.2,0,0.3c0,0.2,0,0.42,0,0.64c0,0.14,0,0.27,0,0.42c0,0.25,0,0.52,0,0.78c0,0.28,0,0.57,0,0.87
			c0,0.14,0,0.28,0,0.43c0,0.27,0,0.55,0,0.83v0.25c-0.02,3.53-0.1,7.81-0.33,11.21c-0.03,0.37-0.05,0.72-0.08,1.06
			c-0.03,0.4-0.07,0.77-0.11,1.13c0,0.04,0,0.07-0.01,0.11c-0.03,0.32-0.07,0.63-0.11,0.91c-0.02,0.11-0.03,0.21-0.05,0.32
			c-0.03,0.2-0.06,0.41-0.09,0.59c-0.05,0.28-0.11,0.54-0.17,0.76c-1,3.75-4.42,8-6.67,11.42c-0.27,0.41-0.54,0.83-0.79,1.24
			c-0.07,0.12-0.15,0.24-0.22,0.35c-0.3,0.48-0.59,0.96-0.89,1.43c-0.08,0.13-0.16,0.26-0.24,0.39c-0.15,0.24-0.3,0.48-0.45,0.72
			c-0.1,0.16-0.2,0.31-0.3,0.47c-0.14,0.22-0.29,0.44-0.43,0.65c-0.1,0.15-0.21,0.3-0.32,0.46c-0.14,0.2-0.29,0.41-0.44,0.6
			c-0.11,0.15-0.23,0.29-0.34,0.43c-0.15,0.19-0.3,0.37-0.45,0.55c-0.12,0.14-0.26,0.27-0.39,0.41c-0.15,0.16-0.3,0.33-0.47,0.48
			c-0.3,0.28-0.61,0.55-0.93,0.8c-0.18,0.13-0.36,0.27-0.56,0.4c-0.02,0.01-0.03,0.02-0.05,0.03c-0.16,0.11-0.33,0.22-0.5,0.34
			c-0.1,0.06-0.2,0.12-0.3,0.18s-0.21,0.13-0.31,0.19s-0.21,0.12-0.31,0.18c-0.11,0.06-0.21,0.12-0.32,0.18
			c-0.11,0.06-0.22,0.12-0.33,0.18c-0.11,0.06-0.22,0.12-0.33,0.18c-0.11,0.06-0.22,0.11-0.33,0.17c-0.11,0.06-0.22,0.11-0.34,0.17
			c-0.11,0.05-0.22,0.1-0.33,0.16c-0.11,0.05-0.23,0.11-0.34,0.16c-0.11,0.05-0.21,0.1-0.32,0.14c-0.12,0.05-0.23,0.1-0.34,0.15
			c-0.1,0.04-0.21,0.09-0.31,0.13c-0.11,0.05-0.23,0.09-0.34,0.14c-0.1,0.04-0.2,0.08-0.29,0.11c-0.11,0.04-0.22,0.08-0.33,0.12
			c-0.09,0.03-0.18,0.06-0.28,0.09c-0.11,0.04-0.21,0.07-0.32,0.1c-0.09,0.03-0.17,0.05-0.25,0.08c-0.1,0.03-0.2,0.05-0.3,0.08
			c-0.08,0.02-0.16,0.04-0.23,0.06c-0.1,0.02-0.19,0.04-0.28,0.05c-0.07,0.01-0.14,0.03-0.2,0.03c-0.09,0.01-0.17,0.02-0.25,0.02
			c-0.05,0-0.11,0.01-0.16,0.01c-0.09,0-0.16,0-0.23,0c-0.04,0-0.08,0-0.11,0c-0.1-0.02-0.19-0.04-0.27-0.07
			c-1.25-0.58-2.75-2.08-5.42-4.08c-2.67-2-3.42-4.25-0.83-10.5c0.23-0.55,0.48-1.09,0.74-1.62c0.06-0.11,0.11-0.23,0.17-0.34
			c0.26-0.52,0.53-1.03,0.82-1.52c0.02-0.04,0.04-0.07,0.07-0.11c0.29-0.49,0.58-0.97,0.87-1.43c0.03-0.05,0.06-0.1,0.1-0.15
			c0.32-0.49,0.64-0.97,0.95-1.42c0.3-0.43,0.6-0.84,0.88-1.23c1.28-1.71,2.38-2.99,2.84-3.58c0.04-0.05,0.06-0.08,0.08-0.11
			c0.03-0.04,0.07-0.09,0.09-0.12c0.04-0.06,0.06-0.1,0.06-0.12c0-0.33-2.33-15.17-3.75-20.67c-1.42-5.51-2.25-8.24-2.25-8.24
			s-1.17,0.67-3.5,1.58c-2.33,0.92-3.67,1.83-5.67,0.5s-3.58-4.67-3.92-8.33c-0.33-3.67,0.58-3.75,3.33-4.92s5.83-5,5.83-5
			s-0.17-0.5-2.83-5c-0.19-0.32-0.37-0.65-0.54-1c-0.06-0.11-0.11-0.23-0.16-0.34c-0.12-0.25-0.24-0.5-0.35-0.76
			c-0.06-0.13-0.11-0.26-0.17-0.4c-0.11-0.26-0.22-0.53-0.32-0.8c-0.05-0.13-0.1-0.25-0.15-0.38c-0.12-0.33-0.24-0.66-0.35-1
			c-0.02-0.07-0.05-0.14-0.07-0.21c-0.14-0.43-0.28-0.87-0.41-1.3v-0.05c-0.14-0.42-0.26-0.84-0.37-1.26
			c-0.02-0.07-0.04-0.15-0.06-0.22c-0.1-0.38-0.2-0.76-0.29-1.13c-0.02-0.06-0.03-0.13-0.05-0.19c-0.1-0.42-0.2-0.84-0.3-1.26
			c-0.07-0.33-0.15-0.66-0.21-0.98c-0.3-1.41-0.55-2.72-0.75-3.84l-0.03-0.14c-0.06-0.35-0.12-0.68-0.17-0.99
			c-0.05-0.29-0.07-0.56-0.07-0.82c0-0.08,0-0.15,0.01-0.22c0.01-0.18,0.03-0.36,0.07-0.53c0.01-0.06,0.03-0.13,0.04-0.18
			c0.12-0.43,0.33-0.8,0.62-1.11c0.03-0.03,0.06-0.06,0.09-0.09c0.13-0.13,0.26-0.24,0.41-0.35c0.03-0.02,0.06-0.05,0.1-0.07
			c0.38-0.26,0.83-0.47,1.32-0.64h0.02c0.25-0.09,0.52-0.17,0.79-0.24c0.32-0.08,0.65-0.15,1-0.22L277.55,103.52z M298.89,204.45
			c0.11,0.86,0.23,1.81,0.39,2.88c0.39,2.98,0.7,5.7,0.94,8.16c0.45,5.3,0.53,10,0.35,14.15c-10.44,2.39-29.15,5.67-55.27,6.43
			c-5.86-11.68-9.92-24.23-12.08-32.23c-1.02-3.99-1.99-8.17-2.9-12.6c0.69,0.08,1.32,0.15,1.77,0.19c2.08,0.2,4.09-1.33,6.29-4.75
			c15.67-1.3,31.34-3.59,45.12-6.5c-0.96,1.53-1.88,3.23-2.63,5.03c-2.34,5.66-2.89,9.84,1.57,13.19c1,0.75,1.83,1.42,2.56,2.02
			c1.3,1.06,2.24,1.83,3.26,2.3c0.43,0.2,0.93,0.29,1.49,0.29c2.61,0,6.31-1.94,8.46-3.26
			C298.45,201.37,298.68,202.94,298.89,204.45L298.89,204.45z M350.71,212.34c0.16-0.59,0.32-1.18,0.48-1.77
			c9.23-6.08,18.36-14.09,26.29-24.75c-8.76,19.04-21.97,35.63-38.29,48.4c8.85-10.27,11.5-21.76,11.53-21.88H350.71z
			 M343.77,222.68c-3.22,5.62-7.8,12.49-13.27,17.77c-10.03,6.61-21.02,11.87-32.71,15.52c0.92-1.7,2.35-5.68,3.38-10.43
			c1.14-5.28,1.77-11.49,1.96-15.49c1.01-0.25,1.93-0.48,2.73-0.69c10.08-2.67,25.61-6.09,42.08-16.36
			C346.78,216.27,345.4,219.55,343.77,222.68L343.77,222.68z M259.18,261.84c-11.28,0-22.22-1.44-32.66-4.15
			c-10.17-4.42-23.84-17.47-28.69-22.45c4.73,0.68,10.07,1.2,16.13,1.49c10.54,0.51,20.28,0.6,29.19,0.39
			c0.85,1.69,1.72,3.31,2.61,4.86c7.42,12.85,11.78,17.9,14.9,19.83c-0.49,0-0.98,0.02-1.47,0.02L259.18,261.84z M171.35,227.66
			c4.79,2.51,12.25,5.28,23.62,7.15c2.98,3.51,11.81,13.5,20.57,19.5C199.02,248.41,184.03,239.28,171.35,227.66z M196.11,233.42
			l-0.28-0.33c-2.57-3.01-6.85-8.48-11.24-16.42c0.05,0.01,0.11,0.03,0.16,0.04c0.74,0.16,1.58,0.24,2.49,0.24
			c5.05,0,12.4-2.63,17.26-10.71c3.72-6.18,5.71-11.88,7.01-18.37c3.16,0,6.38-0.07,9.62-0.18c1.64,1.88,2.58,2.53,4.22,2.86
			c0.74,0.15,2.1,0.34,3.46,0.5c3.4,17.65,7.63,31.73,12.84,42.99c0.33,0.71,0.66,1.41,0.99,2.09c-8.76,0.19-18.32,0.1-28.65-0.4
			c-6.57-0.32-12.31-0.92-17.32-1.69C196.41,233.76,196.21,233.54,196.11,233.42L196.11,233.42z M180,210.66v-0.02
			c-0.14-0.17-0.25-0.33-0.36-0.48l-0.05-0.07c-0.09-0.14-0.18-0.26-0.25-0.38l-0.05-0.08c-0.08-0.13-0.16-0.25-0.22-0.36v-0.02
			c-0.06-0.08-0.1-0.15-0.13-0.21l-0.03-0.06c0,0-0.04-0.07-0.05-0.1l-0.02-0.03l-0.02-0.04c0,0-4.08-2.33-9.58-5.33
			s-5.92-6-6.5-8.67s0.5-4.08,1.33-5.92c0.83-1.83,1.08-0.58,3.42,0.83c0.16,0.1,0.34,0.22,0.53,0.35c0.07,0.05,0.15,0.11,0.22,0.16
			c0.12,0.09,0.25,0.18,0.38,0.28c0.1,0.08,0.21,0.17,0.32,0.25c0.1,0.08,0.2,0.16,0.3,0.24c1.31,1.05,2.89,2.41,4.39,3.5
			c0.67,0.49,1.32,0.92,1.92,1.25c0.19,0.11,0.38,0.2,0.56,0.28c0.02,0,0.03,0.01,0.05,0.02c0.16,0.07,0.32,0.14,0.47,0.19
			c0.06,0.02,0.11,0.03,0.17,0.04c0.11,0.03,0.22,0.06,0.32,0.08c0.16,0.02,0.31,0.03,0.45,0.02c2.33-0.25,7.42-2.83,10.17-6.75
			c0.11-0.16,0.22-0.34,0.32-0.52c0.03-0.05,0.05-0.09,0.08-0.14c0.1-0.19,0.19-0.38,0.28-0.58c0.09-0.22,0.17-0.44,0.25-0.67
			c0.02-0.05,0.03-0.1,0.05-0.15c0.08-0.23,0.15-0.46,0.22-0.7c0.09-0.32,0.17-0.65,0.24-0.98c0.1-0.44,0.18-0.9,0.25-1.36
			c0-0.03,0-0.05,0.01-0.08c0.53-3.43,0.45-7.2,0.4-8.63v-0.04c-0.01-0.24-0.02-0.41-0.03-0.5v-0.07c0,0-4.84-1.58-12.67-4.58
			c-0.44-0.17-0.87-0.34-1.28-0.5c-0.16-0.06-0.32-0.13-0.48-0.19c-0.24-0.09-0.47-0.19-0.7-0.28c-0.2-0.08-0.4-0.16-0.6-0.24
			c-0.16-0.06-0.31-0.13-0.46-0.19c-0.23-0.1-0.46-0.19-0.68-0.29c-0.07-0.03-0.13-0.06-0.19-0.08c-1.18-0.51-2.22-0.99-3.12-1.45
			c-0.21-0.11-0.42-0.22-0.62-0.33c-0.09-0.05-0.17-0.09-0.26-0.14c-0.13-0.07-0.26-0.14-0.38-0.21c-1.24-0.71-2.16-1.39-2.84-2.08
			c-0.01-0.01-0.02-0.02-0.03-0.03c-0.12-0.13-0.24-0.25-0.35-0.38c-0.04-0.05-0.07-0.09-0.11-0.14c-0.07-0.09-0.15-0.19-0.22-0.28
			c-0.1-0.14-0.19-0.29-0.27-0.43c-1.33-2.33-0.83-5.17,0.75-7.25c0.17-0.23,0.38-0.43,0.61-0.62c0.08-0.07,0.17-0.13,0.26-0.19
			c0.15-0.11,0.32-0.21,0.49-0.31c0.12-0.07,0.23-0.13,0.36-0.19c0.25-0.12,0.52-0.22,0.8-0.31c0.35-0.11,0.72-0.2,1.1-0.27
			c0.88-0.17,1.86-0.24,2.92-0.23c0.48,0,0.98,0.03,1.5,0.07c0.05,0,0.1,0,0.16,0c0.56,0.05,1.13,0.11,1.71,0.2
			c4.5,0.67,16.17,5.08,16.17,5.08l0.33-8.92c0,0-3.58-1.92-7.92-3.58c-4.33-1.67-11.5-2.75-12.5-2.67
			c-0.13,0.01-0.27,0.02-0.41,0.04c-0.46,0.04-1.01,0.1-1.75,0.17h-0.01c-0.15,0.01-0.3,0.03-0.46,0.04
			c-0.18,0.01-0.37,0.03-0.57,0.04h-0.03c-0.26,0.02-0.54,0.04-0.84,0.06h-0.09c-0.34,0.03-0.7,0.05-1.09,0.07
			c-3.08,0.17-5.52-0.94-9.33-2.5c-3.93-1.61-2.78-3.64-1.83-5.42c1.62-3.04,7.67-8.17,9.42-8c0.1,0,0.23,0.02,0.38,0.04
			c0.05,0,0.11,0.01,0.17,0.02c0.1,0.01,0.2,0.02,0.32,0.04c0.1,0.01,0.21,0.03,0.32,0.04c0.09,0.01,0.17,0.02,0.26,0.03
			c0.14,0.02,0.29,0.04,0.44,0.06c0.07,0,0.14,0.02,0.22,0.03c0.18,0.02,0.36,0.05,0.56,0.08l0.17,0.02
			c0.21,0.03,0.42,0.06,0.64,0.09l0.17,0.03c0.23,0.03,0.46,0.07,0.7,0.11l0.14,0.02c0.26,0.04,0.52,0.08,0.79,0.12h0.03
			c0.32,0.06,0.64,0.11,0.98,0.16h0.02c0.33,0.06,0.66,0.11,1,0.17h0.06c0.32,0.07,0.64,0.12,0.96,0.18c0.05,0,0.1,0.02,0.15,0.03
			c0.29,0.05,0.59,0.1,0.88,0.16c0.08,0.01,0.16,0.03,0.23,0.04c0.26,0.05,0.52,0.1,0.78,0.15c0.12,0.02,0.23,0.05,0.35,0.07
			c0.22,0.04,0.44,0.09,0.65,0.13c0.15,0.03,0.3,0.06,0.45,0.09c0.17,0.04,0.35,0.07,0.51,0.11c0.18,0.04,0.36,0.08,0.54,0.12
			c0.13,0.03,0.26,0.06,0.38,0.08c0.3,0.07,0.58,0.13,0.85,0.2c4.42,1.08,14.58,5.17,14.58,5.17s0-3.25,0.17-7.17
			c-3.67-3.33-11.42-3.42-14.25-3.92c-2.83-0.5-3.67-0.83-6.25-2.67c-0.3-0.24-0.57-0.44-0.82-0.64c-0.17-0.14-0.33-0.27-0.47-0.41
			c-0.14-0.14-0.28-0.27-0.39-0.42c-0.08-0.09-0.15-0.19-0.21-0.29c-0.06-0.11-0.12-0.22-0.17-0.33c-0.05-0.12-0.1-0.24-0.14-0.37
			c-0.2-0.66-0.24-1.54-0.1-2.84c0.03-0.31,0.07-0.64,0.12-1c0.03-0.2,0.06-0.4,0.09-0.62c0.04-0.25,0.08-0.51,0.13-0.78
			c0.5-2.9,0.9-3.62,1.98-4.04c0.16-0.06,0.36-0.14,0.57-0.22c0.16-0.07,0.34-0.13,0.52-0.2c0.05-0.02,0.1-0.04,0.15-0.05
			c0.15-0.06,0.31-0.12,0.47-0.17c0.18-0.06,0.35-0.12,0.53-0.18c0.06-0.02,0.12-0.04,0.18-0.06c0.19-0.06,0.37-0.12,0.56-0.17
			c0.03,0,0.06-0.02,0.1-0.02c0.17-0.04,0.33-0.08,0.48-0.11c0.03,0,0.07-0.01,0.1-0.02c0.17-0.03,0.32-0.05,0.46-0.06
			c0.03,0,0.06,0,0.09,0c0.14,0,0.27,0,0.37,0.03c0.92,0.25,2.58,0.92,6.83,2.08c4.25,1.17,18.83,4.75,18.83,4.75l0.22-0.14
			l0.06-0.04c0.12-0.07,0.26-0.16,0.45-0.27c0.09-0.05,0.18-0.11,0.28-0.17c2.74-1.65,10.44-6.28,15.98-9.39h0.01
			c0.35-0.2,0.69-0.39,1.02-0.58c0.31-0.18,0.62-0.34,0.91-0.5l0.1-0.06c0.24-0.13,0.46-0.25,0.68-0.37
			c0.08-0.04,0.15-0.08,0.22-0.12c0.19-0.1,0.36-0.19,0.54-0.28c0.07-0.03,0.13-0.07,0.2-0.1c0.23-0.12,0.44-0.23,0.64-0.32
			c-0.19-0.26-0.41-0.5-0.63-0.73c-0.06-0.06-0.12-0.12-0.19-0.18c-0.19-0.18-0.39-0.35-0.59-0.51c-0.05-0.04-0.1-0.08-0.15-0.11
			c-0.55-0.41-1.15-0.76-1.75-1.06c-0.35-0.17-0.71-0.33-1.06-0.47c-0.52-0.2-1.02-0.37-1.49-0.5l-0.06-0.02
			c-0.21-0.06-0.4-0.11-0.59-0.16c-0.04,0-0.07-0.02-0.11-0.03c-0.17-0.04-0.32-0.08-0.47-0.11l-0.11-0.02
			c-0.14-0.03-0.27-0.06-0.38-0.08l-0.09-0.02c-0.11-0.02-0.21-0.04-0.29-0.05h-0.07c-0.08-0.02-0.15-0.03-0.19-0.04h-0.11
			c0,0-5.92,4.09-11.33,6.59c-5.42,2.5-9.92,2.92-12.42,3.08c-2.5,0.17-9.25-0.17-9.42-6c-0.17-5.83,2.83-7.17,5.08-8.42
			s4-0.92,6.5-1.92s7.33-3.17,11.5-5.08c4.17-1.92,5.67-5.17,6.25-6.25s3.5-2.92,6.92-0.5c0.29,0.2,0.54,0.42,0.77,0.63
			c0.06,0.05,0.11,0.11,0.17,0.16c0.22,0.22,0.43,0.44,0.61,0.67c0.14,0.18,0.27,0.37,0.38,0.56c0,0.02,0.02,0.03,0.03,0.05
			c0.1,0.17,0.2,0.35,0.28,0.53l0.02,0.04c0.08,0.18,0.15,0.37,0.22,0.56c0.06,0.2,0.12,0.4,0.16,0.59c0.12,0.56,0.15,1.12,0.1,1.66
			c-0.05,0.54-0.16,1.05-0.34,1.52c-0.07,0.19-0.15,0.37-0.23,0.55c-0.01,0.02-0.02,0.04-0.03,0.06c-0.09,0.18-0.18,0.35-0.29,0.5
			c0.14,0.08,0.31,0.15,0.48,0.22c0.16,0.07,0.34,0.13,0.52,0.19c0.03,0,0.05,0.02,0.08,0.03c0.18,0.06,0.37,0.11,0.56,0.16
			c0.04,0.01,0.08,0.02,0.12,0.03c0.19,0.05,0.39,0.09,0.59,0.13c0.05,0,0.1,0.02,0.14,0.03c0.2,0.04,0.41,0.08,0.62,0.11
			c0.05,0,0.11,0.02,0.16,0.03c0.21,0.03,0.42,0.06,0.63,0.09c0.06,0,0.11,0.02,0.17,0.02c0.21,0.03,0.43,0.05,0.64,0.08
			c0.06,0,0.12,0.01,0.18,0.02c0.21,0.02,0.42,0.04,0.63,0.06c0.06,0,0.12,0.01,0.17,0.02c0.21,0.02,0.41,0.04,0.62,0.05
			c0.06,0,0.12,0,0.17,0.01c0.2,0.01,0.39,0.03,0.58,0.04h0.17c0.19,0.02,0.37,0.03,0.54,0.04c0.05,0,0.09,0,0.14,0
			c0.18,0,0.35,0.02,0.51,0.02h0.11c0.15,0,0.3,0.01,0.43,0.02h0.14c0.11,0,0.23,0,0.33,0.01h0.1c0.09,0,0.18,0,0.25,0h0.3
			c0,0,4.33-3.16,7.42-3.58c3.08-0.42,4.75,2.17,7.33,4.83c2.58,2.67,2.17,4.92,1.75,6.42c-0.42,1.5-1.5,2.67-3,4.33
			c-1.5,1.67-4.36,2.68-8.69,5.33c-0.18,0.11-0.38,0.23-0.58,0.36l-0.14,0.09c-0.17,0.1-0.35,0.22-0.53,0.33l-0.15,0.1
			c-0.23,0.14-0.47,0.3-0.72,0.45l-0.1,0.07c-0.24,0.15-0.49,0.31-0.74,0.47l-0.1,0.06c-0.27,0.17-0.54,0.34-0.82,0.52l-0.2,0.13
			c-0.23,0.15-0.46,0.29-0.7,0.44l-0.21,0.13c-0.29,0.18-0.57,0.37-0.87,0.55l-0.21,0.13c-0.22,0.14-0.44,0.28-0.67,0.42
			c-0.11,0.07-0.22,0.14-0.33,0.21c-0.28,0.18-0.57,0.36-0.85,0.55l-0.1,0.06c-0.28,0.18-0.55,0.35-0.83,0.53l-0.27,0.17
			c-0.58,0.37-1.15,0.74-1.71,1.1c-0.1,0.06-0.19,0.12-0.29,0.18c-0.2,0.13-0.39,0.25-0.59,0.38l-0.36,0.23
			c-0.22,0.14-0.44,0.28-0.65,0.42l-0.25,0.16c-0.16,0.1-0.32,0.2-0.47,0.3l-0.26,0.16c-0.15,0.1-0.3,0.19-0.44,0.28l-0.24,0.16
			l-0.05,0.03c-0.34,0.22-0.65,0.42-0.93,0.6c-0.38,0.25-0.69,0.44-0.92,0.6c-0.19,0.12-0.33,0.21-0.41,0.26l-0.08,0.05
			c-0.15,0.18-0.26,0.35-0.35,0.51c-0.03,0.04-0.04,0.08-0.06,0.13c-0.06,0.12-0.1,0.23-0.13,0.33c0,0.04-0.02,0.07-0.02,0.1
			c-0.02,0.12-0.02,0.23,0,0.34c0,0,0,0.01,0,0.02c0.03,0.12,0.1,0.22,0.19,0.3c0.09,0.09,0.23,0.16,0.38,0.21
			c0.03,0.01,0.06,0.02,0.1,0.03c0.17,0.05,0.36,0.09,0.59,0.1c0.32,0,0.61,0,0.91-0.01c0.34,0,0.67,0,0.99-0.01h0.04
			c1.08-0.01,2.05-0.02,2.93-0.02c0.05,0,0.1,0,0.15,0c0.24,0,0.47,0,0.7,0c0.09,0,0.18,0,0.26,0c0.22,0,0.43,0,0.64,0.01
			c0.08,0,0.16,0,0.24,0c0.21,0,0.42,0.01,0.62,0.02c0.04,0,0.07,0,0.11,0c0.47,0.02,0.92,0.05,1.35,0.08
			c1.71,0.13,3.21,0.38,5.02,0.82h0.02c0.3,0.08,0.61,0.15,0.93,0.24h0.01c0.32,0.09,0.66,0.18,1.01,0.27
			c5.42-1.17,6.67-0.75,9.08,0.92c2.42,1.67,1.58,6,1.17,8c-0.42,2-2.67,4.58-4,9.42c-1.33,4.83-0.5,6.33,1.08,8.42
			c9.83,1,22.67-0.58,24.67-0.92c2-0.34,2.25,0.33,2.47,1.75s0.28,1.08-1.05,2.5c-1.33,1.42-4.08,7.33-7.08,12.42
			c-3,5.08-4.83,5.25-6.67,6.08c-1.84,0.83-5.67,0.5-6.58-0.75c-0.92-1.25-3.33-2.75-5.42-3.83c-2.08-1.08-3.33-1.92-4.92-1.58
			c0.92,7-0.58,18.5-1.33,19.75c-0.18,0.3-0.44,0.72-0.76,1.19c-0.23,0.34-0.49,0.7-0.77,1.06c-0.35,0.45-0.73,0.89-1.13,1.26
			c-0.01,0.01-0.03,0.02-0.04,0.04c-0.11,0.1-0.22,0.2-0.33,0.28c-0.04,0.03-0.08,0.06-0.11,0.09c-0.09,0.07-0.18,0.13-0.26,0.18
			c-0.05,0.03-0.09,0.06-0.14,0.08c-0.08,0.05-0.16,0.09-0.25,0.13c-0.05,0.02-0.09,0.04-0.14,0.06c-0.09,0.03-0.17,0.06-0.26,0.08
			c-0.04,0-0.08,0.02-0.12,0.03c-0.12,0.02-0.25,0.03-0.37,0.02c-0.19-0.02-0.41-0.04-0.65-0.06c-0.08,0-0.16-0.02-0.24-0.03
			c-0.17-0.02-0.34-0.04-0.51-0.06c-0.09-0.01-0.18-0.02-0.28-0.03c-0.25-0.03-0.5-0.06-0.76-0.09h-0.01
			c-0.49-0.06-0.99-0.12-1.47-0.18c-0.25-0.03-0.48-0.06-0.71-0.09l-0.16-0.02c-0.19-0.03-0.37-0.05-0.54-0.08
			c-0.11-0.02-0.2-0.03-0.3-0.05c-0.11-0.02-0.23-0.04-0.34-0.05c-0.2-0.03-0.38-0.06-0.52-0.09c-0.61-0.12-1.05-0.27-1.62-0.74
			c-0.14-0.11-0.28-0.25-0.44-0.41c-0.16-0.16-0.33-0.34-0.52-0.55c-0.22-0.24-0.46-0.52-0.73-0.84l-0.02-0.02
			c-0.13-0.15-0.26-0.32-0.41-0.49l-0.03-0.03c-0.15-0.18-0.31-0.38-0.48-0.59c-2.5-3.08-6.17-4.33-10.92-6
			c-0.09,0.71-0.18,1.41-0.27,2.1c-0.01,0.09-0.03,0.18-0.04,0.27c-0.08,0.62-0.17,1.22-0.26,1.82c0,0.05-0.02,0.1-0.02,0.16
			c-0.1,0.64-0.2,1.28-0.3,1.9v0.04c-0.12,0.65-0.23,1.3-0.36,1.93c-0.06,0.34-0.13,0.67-0.2,1c-0.14,0.7-0.3,1.38-0.46,2.06
			c-0.03,0.11-0.05,0.22-0.08,0.34c-0.16,0.66-0.33,1.31-0.51,1.95c0,0.03-0.02,0.06-0.03,0.09c-0.19,0.69-0.4,1.37-0.62,2.04
			c-0.03,0.09-0.06,0.18-0.09,0.28c-0.19,0.56-0.38,1.12-0.59,1.67c-0.06,0.15-0.11,0.3-0.17,0.46c-0.23,0.6-0.47,1.2-0.73,1.8
			c-0.02,0.04-0.03,0.08-0.05,0.13c-0.28,0.64-0.57,1.28-0.89,1.92c-0.08,0.16-0.16,0.32-0.24,0.48c-0.24,0.49-0.5,0.98-0.76,1.48
			c-0.1,0.18-0.2,0.37-0.3,0.55c-0.35,0.64-0.72,1.29-1.12,1.94c-5.17,8.58-13.42,10.25-17.33,9.42c-0.23-0.05-0.45-0.11-0.66-0.19
			c-0.12-0.04-0.24-0.09-0.35-0.14c-0.09-0.04-0.17-0.07-0.26-0.11c-0.16-0.07-0.31-0.15-0.46-0.23c-0.03-0.02-0.06-0.03-0.09-0.05
			c-0.18-0.1-0.35-0.2-0.52-0.32c-1.2-0.8-2.18-1.88-2.87-2.8L180,210.66z M186.9,185.67c-5.34-0.6-10.32-1.43-14.79-2.53
			c-0.89-4.1-1.63-8.45-2.18-13.03c1.74,0.82,3.84,1.69,6.4,2.67c5.34,2.05,9.27,3.43,11.27,4.12
			C187.66,179.6,187.5,183.1,186.9,185.67L186.9,185.67z M186.63,186.65c-0.21,0.68-0.47,1.26-0.77,1.7
			c-2.36,3.36-6.76,5.55-8.46,5.79c-0.59-0.12-1.77-0.93-2.95-1.82c-0.76-2.58-1.47-5.27-2.1-8.08c4.35,1.04,9.14,1.84,14.28,2.42
			V186.65z M169.03,146.73c0.69-0.06,1.21-0.11,1.66-0.15c0.3-0.03,0.55-0.06,0.74-0.07h0.02c0.99,0,7.54,0.98,11.54,2.52
			c2.65,1.02,5.02,2.14,6.41,2.83l-0.16,4.33c-3.84-1.38-10.41-3.63-13.68-4.12c-2.55-0.38-4.76-0.4-6.63-0.1
			c0-1.72,0.05-3.46,0.11-5.23L169.03,146.73z M171.37,124.46c2.78,1.97,3.93,2.45,7.12,3.02c0.65,0.12,1.48,0.2,2.43,0.31
			c2.8,0.3,7.3,0.79,9.9,2.45c-0.04,1-0.06,1.94-0.08,2.76c-3.41-1.31-8.81-3.32-11.81-4.06c-2.25-0.55-5.29-1.11-8.03-1.56
			c0.15-0.97,0.31-1.94,0.47-2.93V124.46z M142.51,98.78c-0.03,0.06-0.05,0.12-0.07,0.18c-0.11-0.2-0.24-0.39-0.35-0.59
			c-3.4-6.27-3.62-13.64-0.67-21.88l0.06-0.16l-0.06-0.02c1.98-4.16,4.19-8.21,6.61-12.15c9.6-11.66,20.53-20.54,31.42-27.29
			c-0.09,1.17-0.04,2.32,0.16,3.46c0.31,1.76,0.97,3.43,1.95,5c-14.17,12.47-28.63,29.91-39.03,53.46L142.51,98.78z M184.87,25.27
			c-2.57,3.02-4.27,6.06-5.03,9.06c-9.26,5.98-18.7,13.62-27.6,23.39c4.38-6.25,9.35-12.16,14.88-17.65
			C172.64,34.59,178.58,29.65,184.87,25.27z M199.16,16.62c11.48-3.78,23.32-3.46,31.1-2.72c-10.69,2.19-29.42,7.18-49.13,19.61
			c1.18-3.58,3.75-7.24,7.63-10.84C192.14,20.49,195.61,18.48,199.16,16.62z M300.89,7.81c9.3,3.05,18.22,7.19,26.6,12.34
			c-7.33-2.33-14.42-4.12-21.13-5.48c-1.15-2.54-3.1-4.87-5.79-6.93C300.68,7.76,300.79,7.79,300.89,7.81L300.89,7.81z
			 M305.12,14.42c-31.9-6.27-55-3-55.23-2.97c8.94-3.42,26.52-8.2,48.24-4.19C301.37,9.34,303.73,11.76,305.12,14.42z M239.95,10.12
			c-1.32-1.87-4.09-4.4-8.08-5.4c6.93-1.54,14.02-2.53,21.23-2.97c-2.9,1.22-7.94,3.75-13.15,8.36V10.12z M223.46,59.02
			c-7.68-0.09-14.86-0.93-21.19-2.52c-1.15-0.29-2.25-0.61-3.32-0.94C212.56,36.2,227.22,24.99,234.83,20
			c-3.4,7.33-8.14,20.68-11.38,39.02H223.46z M239.57,19.46c1.83,3.39,9.55,16.07,18.43,35.43c-3.15,0.78-6.37,1.46-9.65,2.03
			c-7.88,1.38-15.64,2.07-22.98,2.1C230.26,36.22,237.67,22.9,239.57,19.46z M261.25,1.5c10.69,0,21.19,1.33,31.31,3.89
			c-18.74-2.33-35.42,0.99-45.27,3.84c2.45-2.77,5.6-6.05,9.12-7.64c0.92-0.03,1.85-0.06,2.77-0.08
			C259.87,1.5,260.56,1.49,261.25,1.5L261.25,1.5z M228.97,5.39c0.15,0.03,0.31,0.05,0.46,0.08c1.29,0.48,4.48,1.97,5.6,5.27
			c-4.9-0.51-16.89-0.49-30.1,3.04C212.63,10.23,220.67,7.42,228.97,5.39L228.97,5.39z M180.57,40.15c-0.23-1.3-0.24-2.62-0.06-3.95
			c15.75-9.57,31.3-14.74,42.49-17.49c-5.81,2.78-13.52,6.84-22.59,12.52c-5.72,3.58-11.89,8.04-18.12,13.44
			c-0.86-1.43-1.45-2.93-1.73-4.51L180.57,40.15z M232.41,17.48c-6.97,4.62-21.8,16.26-35.59,37.36
			c-6.02-2.14-10.53-4.99-13.28-8.39C203.99,29.57,224.28,21.64,232.41,17.48z M202.03,57.46c6.36,1.6,13.57,2.44,21.26,2.54
			c-1.05,6.14-1.94,12.82-2.55,20.02c-0.16-0.13-0.3-0.26-0.47-0.38c-2.56-1.81-4.86-1.77-6.34-1.42c-1.69,0.4-3.22,1.46-3.89,2.7
			l-0.13,0.25c-0.6,1.15-1.86,3.54-5.07,5.02c-5.02,2.31-9.28,4.19-11.39,5.04c-0.91,0.36-1.72,0.51-2.58,0.68
			c-1.22,0.23-2.61,0.49-4.19,1.36l-0.33,0.18c-2.29,1.25-6.12,3.36-5.92,10.29c0.06,2,0.73,3.75,1.97,5.1
			c-1.52-0.45-2.55-0.79-3.31-1.04c-0.56-0.18-0.97-0.32-1.29-0.41c-0.77-0.21-1.65-0.13-2.8,0.19
			c5.61-21.13,14.21-37.99,23.34-51.16c1.18,0.37,2.39,0.73,3.67,1.05L202.03,57.46z M219.85,103.82
			c-5.78,3.19-14.61,8.51-17.34,10.16c-1.62-0.4-5.15-1.27-8.73-2.17c3.13-0.3,7.09-1.03,11.72-3.17c4.43-2.05,9.1-5.07,10.91-6.28
			c0.92,0.19,2.23,0.56,3.44,1.15C219.85,103.61,219.85,103.72,219.85,103.82z M269.28,139.37c0.4,4.36,2.33,8.29,4.92,10.02
			c2.73,1.82,4.93,0.9,6.87,0.09c0.28-0.12,0.58-0.24,0.89-0.37c0.44-0.17,0.85-0.34,1.22-0.5c0.37,1.34,0.88,3.21,1.5,5.61
			c1.19,4.64,3.09,16.23,3.58,19.5l-0.2,0.24c-0.9,1.1-2.34,2.86-3.79,5.03c-13.76,2.96-29.49,5.29-45.25,6.64
			c1.03-2.15,2.08-11.04,1.8-17.82c0.18,0.09,0.37,0.19,0.58,0.31l0.77,0.41c2.58,1.34,4.19,2.55,4.63,3.16
			c1.8,2.45,6.92,2.59,9.36,1.48c0.21-0.1,0.42-0.18,0.64-0.27c2.22-0.9,4.27-2.03,7.05-6.73c1.27-2.15,2.49-4.43,3.56-6.45
			c1.24-2.32,2.65-4.96,3.22-5.57l0.45-0.47c1.17-1.21,1.51-1.9,1.23-3.67l-0.04-0.26c-0.13-0.83-0.34-2.21-1.56-3.09
			c-1.15-0.84-2.57-0.72-3.53-0.56c-1.87,0.31-13.72,1.76-23.06,0.99c-0.79-1.18-1.04-2.31-0.12-5.64c0.71-2.56,1.72-4.47,2.53-6.01
			c0.68-1.29,1.27-2.4,1.51-3.55c0.44-2.12,1.62-7.77-2.1-10.34c-1.29-0.89-2.37-1.48-3.64-1.77c11.83-1.5,22.18-3.55,29.79-5.3
			c0.89,3.92,2.11,8.02,3.85,10.94c1.01,1.7,1.65,2.81,2.05,3.52c-1.17,1.25-2.76,2.71-3.98,3.22l-0.55,0.23
			c-2.87,1.19-4.59,2.26-4.16,6.99L269.28,139.37z M220.31,186.74c-2.9,0.09-5.78,0.14-8.61,0.15c0.31-1.65,0.58-3.36,0.83-5.14
			c3.19,1.17,5.6,2.3,7.25,4.34c0.19,0.24,0.36,0.43,0.53,0.64V186.74z M264.17,260.68c-7.32-5.13-13.47-14.01-18.39-23.62
			c25.72-0.78,44.24-4,54.72-6.38c-0.76,14.2-4.45,21.66-5.57,24.14c-0.6,1.07-1.2,1.91-1.76,2.51c-8.56,2.33-17.47,3.8-26.63,4.31
			C265.81,261.42,265.03,261.12,264.17,260.68L264.17,260.68z M271.81,103.97c-0.91,1.2-1.22,2.68-0.92,4.41
			c0.26,1.55,0.58,3.3,0.97,5.11c-9.33,2.14-22.76,4.75-38.02,6.22c-3.42-0.8-5.81-0.97-10.32-0.95c4-2.57,10.5-6.74,13.36-8.49
			c1.59-0.98,2.98-1.72,4.2-2.38c2.12-1.14,3.8-2.04,4.99-3.37l0.15-0.17c1.57-1.74,2.81-3.12,3.35-5.08
			c0.37-1.32,1.35-4.84-2.31-8.61c-0.42-0.43-0.81-0.86-1.19-1.28c-2.13-2.33-4.33-4.74-8.08-4.23c-2.9,0.39-6.38,2.57-7.82,3.56
			c-1.98-0.04-4.53-0.22-6.36-0.56c0.49-2.28,0-4.86-1.87-6.99c0.76-7.76,1.88-14.81,3.2-21.15c7.47-0.02,15.36-0.72,23.37-2.12
			c3.37-0.59,6.67-1.29,9.9-2.09c5.79,12.7,12.04,28.19,17.45,45.75c-1.62,0.42-3.09,1.11-4.07,2.41L271.81,103.97z M243.92,18.2
			c6.34,2.74,24.59,10.75,43.73,25.11c-7.71,4.52-17.11,8.29-27.43,11.01C253.24,37.17,247.04,24.37,243.92,18.2L243.92,18.2z
			 M246.99,16.09c7.78,0.32,30.66,1.73,56.93,12.79c-2.48,4.06-6.64,8.14-12.38,12c-0.6,0.41-1.22,0.8-1.85,1.2
			c-18.34-14.73-35.81-23.18-42.7-25.98V16.09z M254.85,14.01c5.5-1.11,21.5-3.13,51.08,2.29c0.21,0.61,0.37,1.22,0.47,1.85
			c0.54,3.09-0.1,6.31-1.81,9.54c-20.16-8.86-38.5-12.3-49.75-13.68H254.85z M138.87,82c-1.09,5.87-0.45,11.25,1.92,16.05
			c-1.9-1.26-3.81-2.1-5.83-1.57c-0.47,0.12-0.89,0.33-1.29,0.57c1.42-5.13,3.15-10.16,5.2-15.06V82z M143.17,99.79
			c0.08-0.19,0.16-0.39,0.25-0.58c10.24-23.2,24.8-39.93,39.35-52.1c2.84,3.5,7.42,6.42,13.49,8.61
			c-8.66,13.43-16.85,30.64-22.38,52.23c-0.52,0.18-1.08,0.39-1.7,0.63l-0.36,0.14c-2.39,0.92-2.92,2.97-3.4,5.78
			c-0.07,0.42-0.13,0.81-0.19,1.19c-6.16-1.77-11.37-3.98-15.59-6.63C149.94,105.3,146.26,102.16,143.17,99.79L143.17,99.79z
			 M354.19,183.09c-0.35,3.72-1.51,15.62-5.6,27.97c-16.78,10.8-32.73,14.64-43.01,17.35c-0.73,0.19-1.54,0.4-2.44,0.62
			c0-0.34,0.02-0.66,0.02-0.95c0.08-11.85-1.74-21.7-3.09-27.35c-0.11-0.66-0.22-1.33-0.33-2c2.42-1.83,3.99-4.4,5.65-7.11
			c0.5-0.81,1-1.63,1.54-2.45c0.49-0.74,1.03-1.52,1.59-2.32c2.11-3.02,4.49-6.45,5.37-9.76c0.3-1.14,0.52-2.97,0.67-5.09
			c4.43-1.31,8.61-2.59,12.55-3.88c1.23,0.75,2.94,1,5.9,0.91c4.97-0.16,16.56,0.3,21.54,0.54c0.13,4.5,0,8.99-0.38,13.52H354.19z
			 M314.65,170.93c0.41-6.78,0.25-15.77,0.25-15.89c0-0.5-0.01-0.97-0.02-1.4c-0.03-2.87-0.05-4.76-1.98-5.41
			c-0.11-0.04-0.21-0.04-0.32-0.06c1.16-0.48,2.02-1.44,2.57-2.9c0.18-0.36,0.96-1.25,1.95-2.26c0.46,0.74,0.89,1.57,1.06,2.32
			l0.53,2.33c0.02,0.96,0.29,3.37,2.22,6.26c0.86,1.29,1.39,3.61,1.86,5.66c0.47,2.07,0.92,4.03,1.77,5.37
			c0.15,0.24,0.28,0.47,0.41,0.67c0.41,0.7,0.81,1.27,1.26,1.73c-3.64,1.18-7.49,2.36-11.55,3.56L314.65,170.93z M300.83,108.12
			h-1.43c-0.5,0-1.71,0.18-2.25,1.78c-0.12,0.36-0.36,1.04-1.23,1.71l-0.19,0.15c-1.19,0.9-2.3,1.77-3.26,2.64
			c-0.49-1.85-0.88-3.64-1.16-5.09c2.88-0.87,5.66-1.74,8.34-2.62c0.39,0.42,0.78,0.89,1.19,1.44L300.83,108.12z M131.04,105.95
			c0.03-0.12,0.07-0.24,0.1-0.36c0.07-0.24,0.14-0.48,0.21-0.71c0.04-0.13,0.09-0.26,0.13-0.39c0.08-0.24,0.17-0.49,0.26-0.73
			l0.02-0.04c0.12-0.3,0.23-0.6,0.36-0.89c0.06-0.14,0.12-0.26,0.19-0.4c2.12-4.63,4.12-4.58,7.35-2.4
			c0.03,0.02,0.06,0.04,0.09,0.06c0.2,0.14,0.41,0.28,0.62,0.44c0.24,0.18,0.5,0.36,0.75,0.56c0.1,0.07,0.2,0.16,0.31,0.23
			c0.26,0.2,0.53,0.41,0.82,0.63c0.48,0.38,1,0.79,1.54,1.23l0.02,0.02c0.54,0.45,1.1,0.92,1.67,1.43c0.32,0.29,0.65,0.59,0.98,0.9
			h0.01c0.33,0.32,0.66,0.64,0.98,0.97c0.31,0.31,0.61,0.63,0.92,0.96l0.07,0.08c0.28,0.3,0.54,0.6,0.81,0.92
			c0.05,0.05,0.09,0.11,0.14,0.16c0.24,0.28,0.47,0.57,0.7,0.87c0.06,0.08,0.13,0.16,0.19,0.25c0.21,0.27,0.41,0.55,0.6,0.83
			c0.07,0.11,0.15,0.21,0.22,0.32c0.18,0.26,0.35,0.53,0.52,0.8c0.08,0.12,0.16,0.25,0.23,0.37c0.16,0.26,0.3,0.53,0.44,0.8
			c0.07,0.13,0.15,0.27,0.22,0.4c0.14,0.28,0.27,0.57,0.39,0.86c0.05,0.13,0.12,0.25,0.17,0.38c0.17,0.42,0.32,0.84,0.45,1.26
			c2,6.58,2.92,10.42,4.08,11.58c1.17,1.17,1.25,1.75-1.25,1.83s-10.25,0.08-18.92-6.25c-0.52-0.38-1-0.77-1.45-1.16
			c-0.31-0.26-0.58-0.53-0.85-0.8c-3-2.91-4.34-6.06-4.64-9.13c-0.04-0.38-0.06-0.77-0.07-1.15c-0.01-0.63,0-1.25,0.06-1.86
			c0.1-0.97,0.28-1.91,0.52-2.82v-0.05H131.04z M138.31,180.67c-0.09-0.42-0.17-0.84-0.25-1.27c-0.02-0.09-0.03-0.19-0.05-0.28
			c-0.12-0.7-0.22-1.41-0.3-2.12c-0.04-0.4-0.06-0.8-0.05-1.21c0-0.36,0.02-0.72,0.04-1.09c0.11-1.65,0.49-3.34,1.06-5.02
			c0.12-0.36,0.25-0.72,0.39-1.08c1.17-3.05,2.87-5.99,4.54-8.44c0.04-0.05,0.07-0.1,0.11-0.16c0.28-0.4,0.55-0.79,0.82-1.16
			c0.09-0.12,0.18-0.25,0.27-0.37c0.12-0.16,0.24-0.32,0.36-0.48c0.15-0.2,0.3-0.39,0.44-0.57c0.09-0.12,0.18-0.23,0.27-0.34
			c0.19-0.24,0.38-0.47,0.56-0.69c0.06-0.07,0.12-0.14,0.18-0.21c0.21-0.24,0.41-0.48,0.59-0.68c2.33-2.61,4.67-4.17,4.67-4.17
			s1,3.25,1.75,7.92c0.03,0.18,0.06,0.38,0.09,0.59c0,0.06,0.02,0.12,0.02,0.18c0.02,0.17,0.05,0.34,0.07,0.53
			c0,0.06,0.02,0.12,0.02,0.18c0.03,0.24,0.06,0.49,0.09,0.76c0,0.05,0.01,0.1,0.02,0.15c0.02,0.23,0.05,0.46,0.07,0.71
			c0,0.08,0.02,0.16,0.02,0.24c0.02,0.25,0.05,0.52,0.07,0.78c0,0.05,0,0.09,0.01,0.14c0.03,0.32,0.05,0.65,0.08,0.99
			c0,0.07,0,0.13,0.01,0.2c0.02,0.28,0.04,0.56,0.06,0.85c0,0.09,0.01,0.17,0.02,0.26c0.04,0.72,0.08,1.47,0.11,2.24
			c0,0.08,0,0.15,0,0.23c0.01,0.33,0.02,0.67,0.03,1.01c0,0.07,0,0.14,0,0.2c0,0.41,0.02,0.82,0.02,1.23v0.06c0,0.38,0,0.76,0,1.15
			c0,0.09,0,0.18,0,0.27c0,0.36,0,0.72-0.01,1.09c0,0.05,0,0.1,0,0.15c0,0.42-0.02,0.84-0.04,1.26c0,0.06,0,0.12,0,0.18
			c-0.01,0.36-0.03,0.71-0.05,1.07c0,0.09-0.01,0.18-0.02,0.27c-0.02,0.41-0.05,0.81-0.08,1.21c-0.03,0.36-0.06,0.71-0.1,1.07
			c-0.07,0.69-0.15,1.36-0.25,2.02c0,0.05-0.01,0.09-0.02,0.14c-0.09,0.62-0.2,1.22-0.32,1.8c-0.01,0.06-0.02,0.12-0.04,0.17
			c-0.12,0.58-0.26,1.13-0.41,1.67c-0.01,0.04-0.02,0.09-0.04,0.13c-0.16,0.57-0.34,1.1-0.54,1.61c-2.92,7.42-5.25,6.33-8.21,5.75
			c-0.12-0.02-0.24-0.07-0.35-0.12c-0.19-0.07-0.38-0.17-0.57-0.29c-0.16-0.1-0.31-0.22-0.47-0.35c-0.18-0.16-0.36-0.33-0.54-0.53
			c-0.04-0.04-0.08-0.08-0.12-0.13c-1.47-1.69-2.81-4.7-3.7-8.12c-0.13-0.51-0.25-1.03-0.37-1.56L138.31,180.67z M317.71,99.02
			c-0.64-1.57-1.31-3.27-1.94-4.97c-0.52-1.42-0.92-2.74-1.31-4.01c-0.15-0.48-0.29-0.96-0.44-1.43c1.68,2.9,4.08,6.89,5.92,9.48
			c-0.73,0.31-1.49,0.63-2.24,0.94L317.71,99.02z M319.87,99.19c-0.35,0.81-0.73,1.63-1.1,2.41c-0.22-0.52-0.45-1.08-0.69-1.66
			C318.68,99.69,319.28,99.44,319.87,99.19z"/>
		<g class="st4">
			<path class="st5" d="M226.87,131.63c0,14.64,0.29,29.27,0.56,43.91c0.17,9.07,0.89,18.31,0.52,27.37l7.68-3.18
				c1.07,1.24-0.27-0.57-0.51-1.08c-0.42-0.89-0.85-1.78-1.25-2.69c-1.2-2.74-2.26-5.54-3.32-8.33c-3.09-8.12-5.98-16.31-8.83-24.52
				c-3.85-11.09-7.62-22.2-11.29-33.35c-1.55-4.71-8.84-4.04-8.84,1.2v72.27c0,5.79,9,5.8,9,0v-72.27l-8.84,1.2
				c3.88,11.8,7.87,23.57,11.97,35.31c2.86,8.2,5.76,16.4,8.89,24.51c1.79,4.63,3.34,10.29,6.65,14.12
				c2.69,3.12,7.53,0.45,7.68-3.18c0.37-9.07-0.35-18.3-0.52-27.37c-0.27-14.63-0.55-29.27-0.56-43.91
				C235.86,125.85,226.86,125.84,226.87,131.63L226.87,131.63z"/>
		</g>
		<g class="st4">
			<path class="st5" d="M303.81,134.06c1.66,11.29,2.73,22.68,4.1,34.01c0.9,7.5,1.81,15.01,2.95,22.49
				c0.65,4.22,1.01,9.21,3.04,13.07c1.83,3.47,6.14,4.94,9.19,1.9c2.67-2.66,3.22-7.54,3.77-11.05c1.54-9.75,1.63-19.68,3.1-29.42
				c1.62-10.68,5.36-21.49,5.71-32.31l-7.52,4.32c1.93,1.16-0.34-1.05-0.35-0.98c-0.05,0.66,0.52,1.81,0.67,2.45
				c0.58,2.37,1.01,4.78,1.44,7.19c1.34,7.45,2.43,14.94,3.48,22.44c1.57,11.25,4.21,23.24,4.03,34.64c-0.03,2,1.56,4.47,3.67,4.82
				l1.33,0.22c2.64,0.44,5.4-0.66,6.15-3.49c3.05-11.57,3.92-24.15,5.58-35.97c1.15-8.16,2.27-16.34,3.18-24.53
				c0.48-4.33,1.58-9.43,0.55-13.76c-1.49-6.26-11.13-3.61-9.64,2.66c-0.25-1.06,0.03-0.53-0.05,0.55
				c-0.07,0.95-0.07,1.91-0.13,2.87c-0.19,2.84-0.5,5.68-0.82,8.51c-0.87,7.73-1.93,15.43-3.02,23.13
				c-1.59,11.14-2.41,22.99-5.29,33.89l6.15-3.49l-1.33-0.22l3.67,4.82c0.07-4.55-0.8-9.23-1.33-13.73
				c-1.01-8.56-2.14-17.12-3.35-25.66c-1.09-7.67-2.2-15.35-3.67-22.96c-0.92-4.79-1.4-9.33-5.88-12.02
				c-3.35-2.01-7.4,0.6-7.52,4.32c-0.34,10.28-4.04,20.65-5.54,30.82c-1.57,10.65-1.27,21.61-3.63,32.15
				c-0.19,0.85-0.69,1.88-0.72,2.74c-0.1,2.34,6.64,2.86,6.84,0.36c0.07-0.87-1-4.26-1.3-5.86c-1.43-7.78-2.32-15.66-3.27-23.5
				c-1.53-12.67-2.76-25.4-4.62-38.03c-0.93-6.34-10.57-3.65-9.64,2.66L303.81,134.06z"/>
		</g>
		<g class="st4">
			<path class="st5" d="M25.67,172.82c2.2-0.3,4.39-0.76,6.59-1.02l-4.5-4.5c0.55,12.02-0.71,24.35,1,36.29l4.34-5.7
				c-6.95-0.07-15.43-0.99-18.96-8.15c-1.52-3.09-1.75-7.53-2.54-10.89c-0.99-4.23-7.76-4.35-8.68,0v0.04h8.67
				c0.31,1.73,0.02-0.22-0.03-0.88c-0.07-1.06-0.16-2.12-0.23-3.18c-0.18-2.6-0.35-5.21-0.5-7.81c-0.25-4.3,0.23-8.46,1.15-12.68
				c1.24-5.76,4.7-9.56,7.32-14.67c0.16-0.31,0.42-0.6,0.65-0.87c0.51-0.61-1.33,0.53-0.36,0.34c1.31-0.26,2.6-0.48,3.92-0.63
				c2.13-0.24,5.38-0.97,7.4-0.18c5.39,2.13,7.73-6.57,2.39-8.68c-2.88-1.13-6.83-0.46-9.8-0.15c-2.67,0.29-6.17,0.35-8.55,1.78
				c-2.7,1.63-4.42,5.26-6,7.85c-1.58,2.59-3.29,5.28-4.37,8.18C0.77,157.55,1,170.61,2.9,181.28c0.78,4.37,7.79,4.22,8.68,0v-0.04
				H2.92c1.19,5.1,1.63,10.88,4.97,15.09c6.6,8.34,14.94,10.46,25.21,10.56c3.22,0.03,4.74-2.89,4.34-5.7
				c0.17,1.15-0.06-1.29-0.08-1.75c-0.08-1.5-0.12-3.01-0.17-4.52c-0.1-3.7-0.16-7.4-0.21-11.09c-0.07-5.5,0.03-11.03-0.22-16.53
				c-0.1-2.21-1.99-4.8-4.5-4.5c-3.01,0.36-5.98,0.94-8.99,1.34c-5.71,0.78-3.28,9.45,2.39,8.68H25.67z"/>
		</g>
		<g class="st4">
			<path class="st5" d="M80.53,199.72c-1.14-1.2-1.46-5.26-1.8-7.14c-0.45-2.44-0.43-5.25-1.18-7.61c-1.81-5.72-10-4.61-14.8-4.66
				s-11.33-0.78-13.59,4.54c-2.26,5.32-2.85,10.89-5.63,15.71h7.77c0.94,1.52,0.03,0.93,0.38-0.32c0.23-0.82,0.25-1.77,0.4-2.61
				c0.34-1.84,0.74-3.67,1.17-5.49c0.61-2.59,1.31-5.16,1.95-7.74c1.57-6.29,2.89-12.65,4.26-18.98c2.42-11.15,4.78-22.32,7.1-33.49
				l-6.61,2.69c0,0-0.42-1.06-0.28-0.06c0.08,0.57,0.43,0.99,0.67,1.64c0.72,2.01,1.21,4.12,1.69,6.2
				c1.35,5.82,2.33,11.73,3.25,17.63c1.34,8.56,1.82,17.49,3.73,25.94c1.28,5.65,9.95,3.26,8.68-2.39
				c-2.14-9.48-2.66-19.47-4.23-29.06c-0.97-5.92-1.97-11.89-3.54-17.68c-0.91-3.35-2.04-8.23-5.43-9.98
				c-2.42-1.25-5.99-0.3-6.61,2.69c-2.54,12.21-5.12,24.4-7.77,36.59c-1.29,5.9-2.53,11.81-4.04,17.66
				c-0.98,3.8-1.96,7.6-2.67,11.46c-0.55,3-1.61,7.06,0.13,9.86c1.74,2.8,6.05,2.99,7.77,0c1.52-2.63,2.46-5.64,3.43-8.51
				c0.58-1.71,1.14-3.44,1.7-5.16c0.26-0.79,1.53-3.18,1.32-3.97c0.17,0.64-2.84,1.33-1.58,2.02c0.37,0.2,1.28-0.08,1.73-0.11
				c1.79-0.12,3.61-0.08,5.4-0.05c2.51,0.04,5.8-0.32,8.25,0.41l-2.69-2.07c1.02,1.45,1.06,6.76,1.5,8.93
				c0.67,3.29,1.42,6.98,3.8,9.49c4,4.21,10.36-2.16,6.36-6.36L80.53,199.72z"/>
		</g>
		<g class="st4">
			<path class="st5" d="M114.91,131.24c0,24-0.17,48-0.33,72l8.84-1.2c-7.86-24.38-17.11-48.38-25.77-72.49
				c-1.65-4.6-8.84-4.13-8.84,1.2v72.33c0,5.79,9,5.8,9,0v-72.33l-8.84,1.2c8.66,24.11,17.91,48.11,25.77,72.49
				c1.53,4.75,8.8,4.02,8.84-1.2c0.16-24,0.33-48,0.33-72C123.91,125.45,114.91,125.44,114.91,131.24z"/>
		</g>
		<g class="st4">
			<path class="st5" d="M155.64,137.29c3.7-0.96,7.71,0.49,11.56-0.2l-5.7-4.34c-0.14,6.46,0.64,12.84,0,19.3
				c-0.64,6.46-1.49,13.05-1.6,19.63c-0.11,6.21,0.31,12.4,0.49,18.6c0.07,2.38,0.6,6.39-1.54,7.79c-1.22,0.8-6.06,0.16-5.34,1.81
				l0.45,3.47c-0.39,1.52-1.67,1.18,0.84,0.78c0.96-0.15,2-0.56,2.86-0.99c2.12-1.06,3.98-2.69,5.73-4.26
				c4.31-3.89-2.07-10.24-6.36-6.36c-2.22,2-3.81,2.5-6.5,3.31c-1.64,0.49-3.21,1.36-4.23,2.78c-2.03,2.83-1.16,6.63,1.75,8.46
				c3.23,2.02,7.85,0.8,11.36,0.12c3.96-0.76,7.15-2.64,8.74-6.48c1.79-4.33,1.29-9.41,1.09-13.97c-0.27-5.94-0.52-11.89-0.26-17.83
				c0.26-5.94,0.98-11.23,1.53-16.85c0.64-6.46-0.14-12.84,0-19.3c0.07-3.14-2.92-4.84-5.7-4.34c-3.87,0.7-7.61-0.82-11.56,0.2
				c-5.6,1.45-3.23,10.13,2.39,8.68V137.29z"/>
		</g>
		<g class="st4">
			<path class="st5" d="M180.98,131.85c0,23.43,0,46.85,0,70.28c0,5.79,9,5.8,9,0c0-23.43,0-46.85,0-70.28
				C189.98,126.06,180.98,126.05,180.98,131.85z"/>
		</g>
		<g class="st4">
			<path class="st5" d="M274.38,129.12c-6.56-0.17-11.8-0.77-16.88,4.07c-4.91,4.68-8.01,10.06-9.79,16.58
				c-3.85,14.08-3.56,29.8,2.87,43.01c2.29,4.71,5.09,9.55,9.88,12.04c4.35,2.26,12.24,3.52,17.02,1.74
				c5.8-2.16,3.23-12.68,3.03-17.33c-0.32-7.34-0.64-14.69-0.97-22.03c-0.14-3.19-2.75-4.77-5.7-4.34
				c-1.95,0.29-3.92,0.54-5.89,0.62c-5.77,0.24-5.8,9.24,0,9c2.77-0.12,5.54-0.54,8.28-0.94l-5.7-4.34
				c0.51,11.56,1.28,23.15,1.5,34.72l1.32-3.18c1.63-0.66,1.65-0.87,0.06-0.62c-0.79,0.02-1.57,0.02-2.36,0
				c-1.61-0.05-3.24-0.12-4.79-0.6c-3.01-0.92-4.41-2.89-5.96-5.53c-4.04-6.88-6-14.02-5.95-21.95c0.04-7.41,0.54-15.14,3.36-22.09
				c1.26-3.11,3.87-7.03,6.71-8.95c2.84-1.92,6.63-0.96,9.95-0.87c5.79,0.15,5.79-8.85,0-9L274.38,129.12z"/>
		</g>
		<g class="st4">
			<path class="st5" d="M378.74,127.96c-4.82,2.59-9.85,4.99-12.34,10.17c-2.99,6.22-3.35,14.83-3.73,21.61
				c-0.45,8.05,0.79,16.07,1.28,24.08c0.38,6.2,0.93,12.58,4.74,17.75c7.05,9.6,21.07,6.93,26.23-3.02
				c2.87-5.54,3.53-11.98,4.23-18.09c0.86-7.52,0.96-15.12,0.51-22.66c-0.58-9.48-0.36-27.41-13.01-29.18
				c-5.66-0.79-8.11,7.88-2.39,8.68c4.29,0.6,4.91,5.65,5.43,9.27c0.82,5.73,1.12,11.64,1.23,17.42c0.12,6.42-0.22,12.86-1.12,19.22
				c-0.67,4.75-1.31,12.76-6.44,14.93c-6.12,2.59-9.15-3.9-9.95-8.84c-1.07-6.58-1.22-13.6-1.62-20.26
				c-0.42-6.97,0.06-13.9,1.22-20.78c0.53-3.13,0.94-6.49,3.49-8.65c1.94-1.64,4.58-2.67,6.8-3.86c5.1-2.74,0.56-10.52-4.54-7.77
				L378.74,127.96z"/>
		</g>
		<g class="st4">
			<path class="st5" d="M441.43,200.74c-7.78-10.46-2.95-34.27-22.06-32.16c-5.61,0.62-5.92,9.14,0,9
				c17.29-0.41,25.57-16.94,22.42-32.71c-1.28-6.38-3.44-10.2-9.16-13.44c-5.72-3.24-13.4-3.53-19.77-3.42
				c-2.41,0.04-4.53,2.03-4.5,4.5c0.13,12.13,0.07,24.26,0.15,36.38c0.04,7.59,0.09,15.19,0.21,22.78
				c0.06,3.77-0.51,8.39,0.54,12.09c1.58,5.56,10.27,3.2,8.68-2.39c0.36,1.28,0.08,0.79,0.03-0.09c-0.04-0.82-0.07-1.64-0.1-2.46
				c-0.09-2.64-0.12-5.29-0.16-7.94c-0.11-7.68-0.16-15.35-0.21-23.03c-0.07-11.78-0.02-23.56-0.14-35.34l-4.5,4.5
				c4.36-0.08,9.22,0.09,13.37,1.43c3.35,1.09,5.39,2.87,6.24,6.25c2.59,10.38-0.42,23.58-13.11,23.88v9
				c1.52-0.17,3.47-0.13,4.77,0.75c2.21,1.49,2.11,5.59,2.77,8.02c1.59,5.83,3.07,14,6.74,18.93c3.42,4.6,11.23,0.11,7.77-4.54
				L441.43,200.74z"/>
		</g>
		<g class="st4">
			<path class="st5" d="M451.89,131.18c0,23.72,0,47.44,0,71.16c0,2.47,2.06,4.45,4.5,4.5c5.23,0.11,10.48,0.32,15.72,0.2
				c3.01-0.07,5.01-2.81,4.34-5.7c-1.26-5.43-8.39-6.68-13.11-6.51c-5.77,0.21-5.8,9.21,0,9c1-0.04,1.97,0,2.95,0.18
				c0.54,0.09,1.06,0.22,1.58,0.38c1.05,0.57,1.02,0.35-0.1-0.66l4.34-5.7c-5.23,0.12-10.49-0.09-15.72-0.2l4.5,4.5
				c0-23.72,0-47.44,0-71.16C460.89,125.38,451.89,125.37,451.89,131.18L451.89,131.18z"/>
		</g>
		<g class="st4">
			<path class="st5" d="M492.81,203.23c0-23.65,0-47.29,0-70.94l-4.5,4.5c6.31,0.33,12.98,1.78,16.43,7.6
				c4.33,7.32,4.43,17.28,4.28,25.56c-0.14,7.6-0.92,18.87-7.51,23.94c-3.97,3.06-9.66,3.64-14.39,4.99
				c-5.56,1.59-3.2,10.28,2.39,8.68c7.01-2,14.52-3.16,19.8-8.66c7.42-7.71,8.73-20.44,8.72-30.61
				c-0.01-10.55-0.82-22.41-7.33-31.16c-5.14-6.92-14.23-8.92-22.4-9.35c-2.43-0.13-4.5,2.17-4.5,4.5c0,23.65,0,47.29,0,70.94
				c0,5.79,9,5.8,9,0L492.81,203.23z"/>
		</g>
		<path class="st6" d="M113.09,162.54l-12.9-36.39h-13.2v82.25h13.78v-39.36l13.55,39.36h12.55v-82.25h-13.78V162.54L113.09,162.54z
			 M116.87,129.93h6.22v74.7h-6.03L97,148v56.63h-6.22v-74.7h6.69l19.41,55.32L116.87,129.93L116.87,129.93z"/>
		<path class="st6" d="M225.09,162.54l-12.9-36.39h-13.2v82.25h13.78v-39.36l13.55,39.36h12.55v-82.25h-13.78V162.54L225.09,162.54z
			 M228.87,129.93h6.22v74.7h-6.03L209,148v56.63h-6.22v-74.7h6.69l19.41,55.32v-55.32H228.87z"/>
		<path class="st6" d="M178.53,208.4h14.32v-82.25h-14.32V208.4z M182.31,129.92h6.77v74.7h-6.77V129.92z"/>
		<path class="st6" d="M342.66,163.34l-5.53-37.19h-12.02l-5.62,37.19l-4.7-37.19h-13.34l10.6,82.05l0.06,0.43h13.5l5.36-38.83
			l5.36,38.83h13.5l10.65-82.48h-13.04l-4.79,37.19H342.66z M356.54,129.92l-9.68,74.93h-7.51l-8.42-56.64l-8.33,56.64h-7.51
			l-9.68-74.93h6.32l7.06,55.66l9.33-55.66h6l9,56.24l7.39-56.24h6.02H356.54z"/>
		<path class="st6" d="M381.31,124.99c-13.22,0-20.81,14.65-20.81,40.2v4.18c0,25.55,7.58,40.2,20.81,40.2s20.81-14.65,20.81-40.2
			v-4.18C402.12,139.64,394.54,124.99,381.31,124.99z M398.34,169.37c0,23.15-6.21,36.42-17.03,36.42s-17.03-13.27-17.03-36.42
			v-4.18c0-23.15,6.21-36.42,17.03-36.42s17.03,13.27,17.03,36.42V169.37z"/>
		<path class="st6" d="M381.31,135.22c-8.34,0-10.05,11.98-10.05,29.97v4.18c0,17.99,1.71,29.97,10.05,29.97
			s10.05-11.98,10.05-29.97v-4.18C391.36,147.2,389.65,135.22,381.31,135.22z M387.58,169.37c0,17.87-1.99,26.2-6.27,26.2
			s-6.27-8.32-6.27-26.2v-4.18c0-17.87,1.99-26.2,6.27-26.2s6.27,8.32,6.27,26.2V169.37z"/>
		<path class="st6" d="M434.47,152.77c0-13.36-7.42-16.16-13.65-16.16h-3.6v33.48h3.93c4.01,0,13.32-1.6,13.32-16.39V152.77
			L434.47,152.77z M430.69,153.7c0,8.25-3.3,12.62-9.55,12.62h-0.16v-25.93c4.22,0.04,9.7,1.43,9.7,12.38v0.93H430.69z"/>
		<path class="st6" d="M445.01,153.58v-1.04c0-8.53-2.18-15.16-6.47-19.73c-4.1-4.35-10.19-6.66-17.62-6.66h-14.26v82.25h14.32
			v-28.32h1.64l8.63,28.32h15.25l-10.37-33.29C441.94,170.27,445.01,162.83,445.01,153.58L445.01,153.58z M441.37,204.63h-7.32
			l-8.63-28.32h-8.21v28.32h-6.77v-74.7h10.48c6.45,0,11.45,1.84,14.87,5.47c3.66,3.89,5.44,9.5,5.44,17.14v1.04
			c0,8.33-2.6,14.66-7.74,18.81l-1.73,1.4l9.6,30.84H441.37z"/>
		<path class="st6" d="M463.45,126.15h-14.32v82.25h28.41v-14.46h-14.09V126.15L463.45,126.15z M473.76,197.71v6.91h-20.85v-74.7
			h6.77v67.79H473.76L473.76,197.71z"/>
		<path class="st6" d="M493.84,126.15h-12.95v82.25h12.95c17.83,0,27.25-13.74,27.25-39.73v-2.79
			C521.09,139.89,511.67,126.15,493.84,126.15L493.84,126.15z M517.32,168.67c0,16.4-4.07,35.96-23.48,35.96h-9.17v-74.7h9.17
			c10.71,0,23.48,6.24,23.48,35.96V168.67L517.32,168.67z"/>
		<path class="st6" d="M495.26,136.38h-3.82v61.8h3.82c10,0,15.07-9.93,15.07-29.51v-2.79c0-19.58-5.07-29.51-15.07-29.51V136.38z
			 M506.55,168.67c0,17.08-3.8,25.73-11.29,25.73h-0.05v-54.25h0.05c7.49,0,11.29,8.66,11.29,25.73V168.67L506.55,168.67z"/>
		<path class="st6" d="M70.35,125.92H55.32l-14.7,82.48h13.91l2.4-16.13h11.26l2.51,16.13h14.35L70.35,125.92L70.35,125.92z
			 M71.43,188.49H53.68l-2.4,16.13h-6.15l13.35-74.93h8.71l13.35,74.93h-6.6L71.43,188.49z"/>
		<path class="st6" d="M61.5,147.52l-6.85,34.75h15.82l-6.84-34.75H61.5L61.5,147.52z M59.05,178.5l3.5-21.2l3.52,21.2H59.05z"/>
		<path class="st6" d="M19.55,161.42v13.34h6.55v19.97c-0.27,0.04-0.4,0.04-0.7,0.04c-7.1,0-10.86-8.85-10.86-25.6v-3.86
			c0-16.45,4.13-25.15,11.95-25.15c3.41,0,6.25,1.33,9.45,3.33l0.77,0.48v-15.6l-0.27-0.14c-3.09-1.54-6.58-2.32-10.38-2.32
			c-16.31,0-26.05,14.94-26.05,39.96v2.72c0,36.07,17.38,39.96,24.85,39.96c0.42,0,0.83-0.02,1.24-0.04v0.04h13.13v-47.14
			L19.55,161.42L19.55,161.42z M35.45,197.25v7.61H26.1v-0.02c-0.29,0.01-0.59,0.02-0.9,0.02c-0.12,0-0.22,0-0.34,0
			c-13.39,0-21.07-13.22-21.07-36.27v-2.72c0-22.71,8.33-36.27,22.27-36.27c2.47,0,4.78,0.39,6.88,1.15v6.99
			c-1.95-0.77-4.07-1.27-6.44-1.27c-7.17,0-15.72,5-15.72,28.84v3.86c0,19.36,4.89,29.21,14.52,29.29c0.04,0,0.07,0,0.11,0
			c0.11,0,0.2,0,0.29,0h4.18v-27.38h-6.55v-5.96h12.12V197.25L35.45,197.25z"/>
		<path class="st6" d="M262.9,161.42v13.34h6.55v19.97c-0.27,0.04-0.4,0.04-0.7,0.04c-7.1,0-10.86-8.85-10.86-25.6v-3.86
			c0-16.45,4.13-25.15,11.95-25.15c3.41,0,6.25,1.33,9.45,3.33l0.77,0.48v-15.6l-0.27-0.14c-3.09-1.54-6.58-2.32-10.38-2.32
			c-16.31,0-26.05,14.94-26.05,39.96v2.72c0,36.07,17.38,39.96,24.85,39.96c0.42,0,0.83-0.02,1.24-0.04v0.04h13.13v-47.14h-19.67
			L262.9,161.42z M278.8,197.25v7.61h-9.35v-0.02c-0.29,0.01-0.59,0.02-0.9,0.02c-0.12,0-0.22,0-0.34,0
			c-13.39,0-21.07-13.22-21.07-36.27v-2.72c0-22.71,8.33-36.27,22.27-36.27c2.47,0,4.78,0.39,6.88,1.15v6.99
			c-1.95-0.77-4.07-1.27-6.44-1.27c-7.17,0-15.72,5-15.72,28.84v3.86c0,19.36,4.89,29.21,14.52,29.29c0.04,0,0.07,0,0.11,0
			c0.11,0,0.2,0,0.29,0h4.18v-27.38h-6.55v-5.96h12.12V197.25L278.8,197.25z"/>
		<path class="st6" d="M159.13,126.15h-9.51v13.34h8.72v46.94c0,5.29-2.12,7.86-6.49,7.86c-1.93,0-6.94-0.08-6.94-0.08v14.66
			c0,0,5.53,0.23,8.91,0.23c5.79,0,10.36-1.73,13.58-5.15c3.5-3.72,5.27-9.26,5.27-16.48v-61.32H159.13L159.13,126.15z
			 M168.89,187.47c0,6.22-1.43,10.9-4.24,13.89c-2.47,2.63-6.11,3.96-10.83,3.96h-5.13v-7.3c0.96-0.06,2.04,0.04,3.17,0.04
			c3.09,0,10.26-1.13,10.26-11.63V135.8h-8.72v-5.87h15.49V187.47L168.89,187.47z"/>
	</g>
</g>
</svg>
