<svg xmlns="http://www.w3.org/2000/svg">
    <symbol id="FacebookIcon1" viewBox="0 0 40 40">
        <path d="M34 2h-28c-2.2 0-4 1.8-4 4v28c0 2.202 1.8 4 4 4h14v-14h-4v-4.95h4v-4.1c0-4.328 2.424-7.368 7.532-7.368l3.606 0.004v5.21h-2.394c-1.988 0-2.744 1.492-2.744 2.876v3.38h5.136l-1.136 4.948h-4v14h8c2.2 0 4-1.798 4-4v-28c0-2.2-1.8-4-4-4z" />
    </symbol>
    <symbol id="FacebookIcon" viewBox="0 0 32 32">
        <path d="M19 6h5v-6h-5c-3.86 0-7 3.14-7 7v3h-4v6h4v16h6v-16h5l1-6h-6v-3c0-0.542 0.458-1 1-1z"/>
    </symbol>
    <symbol id="TwitterIcon" viewBox="0 0 40 40">
        <path d="M34.632 12.492c0.016 0.324 0.022 0.652 0.022 0.976 0 9.98-7.594 21.484-21.48 21.484-4.266 0-8.232-1.25-11.574-3.394 0.592 0.070 1.192 0.106 1.8 0.106 3.54 0 6.794-1.208 9.376-3.23-3.302-0.062-6.092-2.242-7.052-5.242 0.46 0.086 0.934 0.132 1.42 0.132 0.69 0 1.358-0.090 1.99-0.262-3.454-0.696-6.056-3.746-6.056-7.406 0-0.032 0-0.062 0-0.094 1.018 0.566 2.184 0.906 3.42 0.946-2.026-1.356-3.36-3.664-3.36-6.286 0-1.382 0.372-2.68 1.024-3.796 3.722 4.57 9.288 7.574 15.562 7.89-0.128-0.554-0.194-1.128-0.194-1.722 0-4.168 3.378-7.546 7.548-7.546 2.172 0 4.134 0.914 5.512 2.382 1.718-0.34 3.334-0.968 4.794-1.832-0.564 1.762-1.762 3.242-3.32 4.176 1.528-0.184 2.98-0.586 4.336-1.188-1.012 1.516-2.292 2.844-3.768 3.906z"/>
    </symbol>
    <symbol id="InstagramIcon" viewBox="0 0 32 32">
        <path d="M16 2.881c4.275 0 4.781 0.019 6.462 0.094 1.563 0.069 2.406 0.331 2.969 0.55 0.744 0.288 1.281 0.638 1.837 1.194 0.563 0.563 0.906 1.094 1.2 1.838 0.219 0.563 0.481 1.412 0.55 2.969 0.075 1.688 0.094 2.194 0.094 6.463s-0.019 4.781-0.094 6.463c-0.069 1.563-0.331 2.406-0.55 2.969-0.288 0.744-0.637 1.281-1.194 1.837-0.563 0.563-1.094 0.906-1.837 1.2-0.563 0.219-1.413 0.481-2.969 0.55-1.688 0.075-2.194 0.094-6.463 0.094s-4.781-0.019-6.463-0.094c-1.563-0.069-2.406-0.331-2.969-0.55-0.744-0.288-1.281-0.637-1.838-1.194-0.563-0.563-0.906-1.094-1.2-1.837-0.219-0.563-0.481-1.413-0.55-2.969-0.075-1.688-0.094-2.194-0.094-6.463s0.019-4.781 0.094-6.463c0.069-1.563 0.331-2.406 0.55-2.969 0.288-0.744 0.638-1.281 1.194-1.838 0.563-0.563 1.094-0.906 1.838-1.2 0.563-0.219 1.412-0.481 2.969-0.55 1.681-0.075 2.188-0.094 6.463-0.094zM16 0c-4.344 0-4.887 0.019-6.594 0.094-1.7 0.075-2.869 0.35-3.881 0.744-1.056 0.412-1.95 0.956-2.837 1.85-0.894 0.888-1.438 1.781-1.85 2.831-0.394 1.019-0.669 2.181-0.744 3.881-0.075 1.713-0.094 2.256-0.094 6.6s0.019 4.887 0.094 6.594c0.075 1.7 0.35 2.869 0.744 3.881 0.413 1.056 0.956 1.95 1.85 2.837 0.887 0.887 1.781 1.438 2.831 1.844 1.019 0.394 2.181 0.669 3.881 0.744 1.706 0.075 2.25 0.094 6.594 0.094s4.888-0.019 6.594-0.094c1.7-0.075 2.869-0.35 3.881-0.744 1.050-0.406 1.944-0.956 2.831-1.844s1.438-1.781 1.844-2.831c0.394-1.019 0.669-2.181 0.744-3.881 0.075-1.706 0.094-2.25 0.094-6.594s-0.019-4.887-0.094-6.594c-0.075-1.7-0.35-2.869-0.744-3.881-0.394-1.063-0.938-1.956-1.831-2.844-0.887-0.887-1.781-1.438-2.831-1.844-1.019-0.394-2.181-0.669-3.881-0.744-1.712-0.081-2.256-0.1-6.6-0.1v0z"/>
        <path d="M16 7.781c-4.537 0-8.219 3.681-8.219 8.219s3.681 8.219 8.219 8.219 8.219-3.681 8.219-8.219c0-4.537-3.681-8.219-8.219-8.219zM16 21.331c-2.944 0-5.331-2.387-5.331-5.331s2.387-5.331 5.331-5.331c2.944 0 5.331 2.387 5.331 5.331s-2.387 5.331-5.331 5.331z"/>
        <path d="M26.462 7.456c0 1.060-0.859 1.919-1.919 1.919s-1.919-0.859-1.919-1.919c0-1.060 0.859-1.919 1.919-1.919s1.919 0.859 1.919 1.919z"/>
    </symbol>
    <symbol id="LinkedinIcon" viewBox="0 0 40 40">
        <path d="M10 6c0 2.124-1.42 3.952-4.002 3.952-2.43 0-3.998-1.724-3.998-3.848 0-2.18 1.52-4.104 4-4.104s3.952 1.82 4 4zM2 38v-26h8v26h-8z"/>
        <path d="M14 20.888c0-3.090-0.102-5.672-0.204-7.902h7.188l0.356 3.446h0.152c1.012-1.622 3.492-4 7.644-4 5.064 0 8.864 3.39 8.864 10.684v14.884h-8v-13.722c0-3.188-1.214-5.62-4-5.62-2.124 0-3.188 1.72-3.746 3.138-0.204 0.508-0.254 1.216-0.254 1.926v14.278h-8v-17.112z"/>
    </symbol>
    <symbol id="YoutubeIcon" viewBox="0 0 40 40">
        <path d="M20 4.6c-19.656 0-20 1.748-20 15.4s0.344 15.4 20 15.4 20-1.748 20-15.4-0.344-15.4-20-15.4zM26.41 20.668l-8.98 4.192c-0.786 0.364-1.43-0.044-1.43-0.912v-7.896c0-0.866 0.644-1.276 1.43-0.912l8.98 4.192c0.786 0.368 0.786 0.968 0 1.336z"/>
    </symbol>
    <symbol id="PinterestIcon" viewBox="0 0 40 40">
        <path d="M17.234 26.454c-1.052 5.508-2.334 10.788-6.136 13.546-1.172-8.324 1.722-14.574 3.068-21.21-2.294-3.86 0.276-11.624 5.11-9.71 5.95 2.352-5.152 14.344 2.3 15.844 7.782 1.562 10.958-13.5 6.132-18.398-6.97-7.076-20.292-0.166-18.652 9.964 0.398 2.476 2.956 3.226 1.022 6.644-4.462-0.988-5.794-4.508-5.622-9.2 0.276-7.68 6.898-13.054 13.542-13.8 8.402-0.942 16.288 3.086 17.378 10.988 1.226 8.922-3.792 18.586-12.778 17.89-2.436-0.19-3.456-1.398-5.364-2.558z"/>
    </symbol>
    <symbol id="ShareIcon" viewBox="0 0 16 16">
      <path d="M5.921 11.9 1.353 8.62a.719.719 0 0 1 0-1.238L5.921 4.1A.716.716 0 0 1 7 4.719V6c1.5 0 6 0 7 8-2.5-4.5-7-4-7-4v1.281c0 .56-.606.898-1.079.62z"/>
    </symbol>
    <symbol id="VolumeUp" viewBox="0 0 16 16">
      <path d="M11.536 14.01A8.473 8.473 0 0 0 14.026 8a8.473 8.473 0 0 0-2.49-6.01l-.708.707A7.476 7.476 0 0 1 13.025 8c0 2.071-.84 3.946-2.197 5.303l.708.707z"/>
      <path d="M10.121 12.596A6.48 6.48 0 0 0 12.025 8a6.48 6.48 0 0 0-1.904-4.596l-.707.707A5.483 5.483 0 0 1 11.025 8a5.483 5.483 0 0 1-1.61 3.89l.706.706z"/>
      <path d="M10.025 8a4.486 4.486 0 0 1-1.318 3.182L8 10.475A3.489 3.489 0 0 0 9.025 8c0-.966-.392-1.841-1.025-2.475l.707-.707A4.486 4.486 0 0 1 10.025 8zM7 4a.5.5 0 0 0-.812-.39L3.825 5.5H1.5A.5.5 0 0 0 1 6v4a.5.5 0 0 0 .5.5h2.325l2.363 1.89A.5.5 0 0 0 7 12V4zM4.312 6.39 6 5.04v5.92L4.312 9.61A.5.5 0 0 0 4 9.5H2v-3h2a.5.5 0 0 0 .312-.11z"/>
    </symbol>
    <symbol id="VolumeMute" viewBox="0 0 16 16">
      <path d="M6.717 3.55A.5.5 0 0 1 7 4v8a.5.5 0 0 1-.812.39L3.825 10.5H1.5A.5.5 0 0 1 1 10V6a.5.5 0 0 1 .5-.5h2.325l2.363-1.89a.5.5 0 0 1 .529-.06zM6 5.04 4.312 6.39A.5.5 0 0 1 4 6.5H2v3h2a.5.5 0 0 1 .312.11L6 10.96V5.04zm7.854.606a.5.5 0 0 1 0 .708L12.207 8l1.647 1.646a.5.5 0 0 1-.708.708L11.5 8.707l-1.646 1.647a.5.5 0 0 1-.708-.708L10.793 8 9.146 6.354a.5.5 0 1 1 .708-.708L11.5 7.293l1.646-1.647a.5.5 0 0 1 .708 0z"/>
    </symbol>
</svg>
