<svg width="16" height="16" viewBox="0 0 16 16" fill="none" xmlns="http://www.w3.org/2000/svg">
<path d="M4.0389 9.77614C4.10112 9.5895 4.17577 9.39042 4.27531 9.22866C4.53661 8.69363 5.00942 8.25814 5.58178 8.02173C4.81034 7.71067 4.22554 7.02632 4.06379 6.18023C4.01402 6.03091 4.00158 5.86916 3.95181 5.70741C3.88959 5.44611 3.81494 5.18482 3.74028 4.93597C3.67807 4.74933 3.59097 4.55025 3.4541 4.40093C2.81953 3.70415 1.71214 3.65438 1.01536 4.28895C0.318574 4.92352 0.268804 6.01847 0.903375 6.7277C1.37619 7.25029 2.8693 7.51158 3.97669 7.99685C2.85686 8.48211 1.33887 8.76829 0.866048 9.27843C0.219034 10.0001 0.281246 11.0951 0.978031 11.7296C1.67481 12.3766 2.7822 12.3144 3.41678 11.6176C3.55364 11.4683 3.6283 11.2817 3.70295 11.0826C3.8025 10.8338 3.86471 10.56 3.91448 10.3112C3.96425 10.1494 3.98913 9.96278 4.0389 9.77614Z" fill="white"/>
<path d="M15.1253 9.32821C14.6525 8.80563 13.122 8.53189 12.0147 8.04663C13.1345 7.56136 14.6152 7.30007 15.088 6.77748C15.7225 6.08069 15.6728 4.9733 14.976 4.33873C14.2792 3.66683 13.1718 3.7166 12.5372 4.43827C12.4004 4.58758 12.3257 4.77422 12.2511 4.9733C12.1515 5.22215 12.0893 5.49589 12.0395 5.74474C12.0022 5.89405 11.9773 6.05581 11.9276 6.21756C11.7658 7.05122 11.181 7.73556 10.4096 8.05907C10.9819 8.29548 11.4299 8.70608 11.716 9.266C11.8156 9.45264 11.9027 9.62684 11.9524 9.81348C12.0022 10.0001 12.0395 10.1868 12.0893 10.361C12.1515 10.6222 12.2262 10.8835 12.3008 11.1324C12.363 11.319 12.4501 11.5181 12.587 11.6674C13.2216 12.3642 14.329 12.414 15.0258 11.7794C15.7101 11.1324 15.7599 10.025 15.1253 9.32821Z" fill="white"/>
<path d="M11.5915 12.613C11.4422 12.4762 11.2556 12.4015 11.0565 12.3268C10.8076 12.2273 10.5339 12.1651 10.2851 12.1153C10.1233 12.0656 9.93667 12.0282 9.75003 11.9785C9.56339 11.9162 9.36431 11.8416 9.20256 11.742C8.66753 11.4808 8.23204 11.0079 7.99563 10.4356C7.68456 11.207 7.00022 11.7918 6.15413 11.9536C6.00482 12.0033 5.84306 12.0158 5.68131 12.0655C5.42001 12.1278 5.15872 12.2024 4.90987 12.2771C4.72323 12.3393 4.52415 12.4264 4.37484 12.5633C3.67805 13.1978 3.62828 14.2928 4.26285 15.002C4.89743 15.6988 6.00482 15.7485 6.7016 15.114C7.22419 14.6412 7.48548 13.1481 7.97074 12.0407C8.46844 13.1605 8.74218 14.6785 9.25233 15.1389C9.94911 15.7734 11.0565 15.7237 11.6911 15.0269C12.363 14.355 12.3132 13.2476 11.5915 12.613Z" fill="white"/>
<path d="M4.93478 3.76637C5.18363 3.86591 5.45737 3.92812 5.70622 3.97789C5.85553 4.01522 6.01728 4.0401 6.17903 4.08988C7.01269 4.25163 7.69703 4.83643 8.02054 5.60787C8.25694 5.03551 8.66755 4.58758 9.22747 4.3014C9.4141 4.20186 9.60074 4.11476 9.77494 4.06499C9.96158 4.01522 10.1482 3.97789 10.3224 3.92812C10.5837 3.86591 10.845 3.79125 11.0939 3.7166C11.2805 3.65439 11.4796 3.56729 11.6289 3.43042C12.3257 2.79585 12.3754 1.7009 11.7409 0.991674C11.0939 0.270005 9.98646 0.220234 9.28968 0.879691C8.76709 1.35251 8.49335 2.88295 8.00809 3.97789C7.52283 2.85806 7.26154 1.37739 6.73895 0.904576C6.04217 0.270005 4.93478 0.319775 4.30021 1.01656C3.66563 1.71334 3.7154 2.82073 4.41219 3.4553C4.54906 3.61706 4.72325 3.70416 4.93478 3.76637Z" fill="white"/>
<path d="M9.94913 6.06824C9.60074 5.71985 9.02838 5.71985 8.66755 6.06824C8.4187 6.31709 8.13252 7.25028 7.98321 7.77287C7.84634 7.26273 7.56016 6.31709 7.29887 6.06824C6.95048 5.71985 6.37812 5.71985 6.01729 6.06824C5.6689 6.41663 5.6689 6.98899 6.01729 7.34983C6.26614 7.59868 7.19933 7.88486 7.72191 8.03417C7.21177 8.17104 6.26614 8.45721 6.01729 8.71851C5.6689 9.0669 5.6689 9.63926 6.01729 10.0001C6.36568 10.3485 6.93804 10.3485 7.29887 10.0001C7.54772 9.75124 7.8339 8.81805 7.98321 8.29546C8.12008 8.80561 8.40625 9.75124 8.66755 10.0001C9.01594 10.3485 9.58829 10.3485 9.94913 10.0001C10.2975 9.6517 10.2975 9.07934 9.94913 8.71851C9.70028 8.46966 8.76709 8.18348 8.2445 8.03417C8.75464 7.8973 9.70028 7.61112 9.94913 7.34983C10.2975 6.98899 10.2975 6.41663 9.94913 6.06824Z" fill="white"/>
</svg>
